SplineFontDB: 3.0
FontName: LoyalSansBoldObliquev1
FullName: Loyal Sans Bold Oblique
FamilyName: Loyal Sans
Weight: Bold
Copyright: Copyright (c) 2023, Emmet Blanchette
UComments: "2023-12-11: Created with FontForge (http://fontforge.org)"
Version: 001.000
ItalicAngle: 0
UnderlinePosition: -100
UnderlineWidth: 50
Ascent: 800
Descent: 200
InvalidEm: 0
LayerCount: 2
Layer: 0 0 "Back" 1
Layer: 1 0 "Fore" 0
XUID: [1021 65 -877688889 9584006]
FSType: 0
OS2Version: 0
OS2_WeightWidthSlopeOnly: 0
OS2_UseTypoMetrics: 1
CreationTime: 1702354516
ModificationTime: 1703543480
PfmFamily: 33
TTFWeight: 700
TTFWidth: 5
LineGap: 90
VLineGap: 0
OS2TypoAscent: 0
OS2TypoAOffset: 1
OS2TypoDescent: 0
OS2TypoDOffset: 1
OS2TypoLinegap: 90
OS2WinAscent: 0
OS2WinAOffset: 1
OS2WinDescent: 0
OS2WinDOffset: 1
HheadAscent: 0
HheadAOffset: 1
HheadDescent: 0
HheadDOffset: 1
OS2Vendor: 'PfEd'
Lookup: 4 0 1 "'liga' Standard Ligatures in Latin lookup 0" { "'liga' Standard Ligatures in Latin lookup 0-1"  } ['liga' ('DFLT' <'dflt' > 'latn' <'dflt' > ) ]
Lookup: 258 0 0 "'kern' Horizontal Kerning in Latin lookup 0" { "'kern' Horizontal Kerning in Latin lookup 0-1" [75,15,1] } ['kern' ('DFLT' <'dflt' > 'latn' <'dflt' > ) ]
MarkAttachClasses: 1
DEI: 91125

StartChar: A
Encoding: 19 65 0
Width: 491
VWidth: 0
Flags: W
HStem: 0 21G<-0.950195 51.0771 369.496 471.426> 200.36 34.8398<177.364 322.337>
LayerCount: 2
Fore
SplineSet
322.336914062 235.200195312 m 1
 284.881835938 447.614257812 l 1
 177.364257812 235.200195312 l 1
 322.336914062 235.200195312 l 1
9.1728515625 19.1318359375 m 1
 320.073242188 606.684570312 l 2
 322.9921875 612.408203125 328.241210938 616.571289062 333.625 618.420898438 c 0
 343.405273438 621.780273438 354.85546875 618.110351562 356.864257812 606.986328125 c 2
 467.788085938 19.2763671875 l 1
 469.579101562 9.7802734375 l 1
 471.42578125 0 l 1
 460.790039062 0 l 1
 450.240234375 0 l 1
 380.959960938 0 l 1
 375.6796875 0 l 1
 370.399414062 0 l 1
 369.49609375 4.970703125 l 1
 368.591796875 9.94140625 l 1
 333.958984375 200.360351562 l 1
 154.586914062 200.360351562 l 1
 53.7265625 10.0009765625 l 1
 51.0771484375 5 l 1
 48.427734375 0 l 1
 43.1240234375 0 l 1
 37.8203125 0 l 1
 20 0 l 1
 9.5654296875 0 l 1
 -0.9501953125 0 l 1
 4.1865234375 9.70703125 l 1
 9.1728515625 19.1318359375 l 1
EndSplineSet
EndChar

StartChar: B
Encoding: 20 66 1
Width: 466
VWidth: 0
Flags: W
HStem: 0.0400391 49.8604<100.249 241.055> 363.78 49.8701<164.388 282.098> 569.78 49.8994<191.918 342.589>
LayerCount: 2
Fore
SplineSet
377.71484375 495.299804688 m 0
 387.481445312 550.692382812 297.48828125 569.780273438 243.537109375 569.780273438 c 2
 191.91796875 569.780273438 l 1
 164.387695312 413.650390625 l 1
 180.716796875 413.650390625 l 2
 284.03125 413.650390625 368.982421875 445.77734375 377.71484375 495.299804688 c 0
155.594726562 363.780273438 m 1
 100.249023438 49.900390625 l 1
 116.578125 49.900390625 l 2
 270.896484375 49.900390625 358.559570312 131.229492188 371.891601562 206.83984375 c 0
 385.640625 284.813476562 309.64453125 363.780273438 171.923828125 363.780273438 c 2
 155.594726562 363.780273438 l 1
288.65625 619.6796875 m 2
 384.185546875 619.6796875 489.901367188 594.870117188 472.802734375 497.896484375 c 0
 461.5234375 433.930664062 404.102539062 400.288085938 351.874023438 384.680664062 c 1
 420.66015625 359.841796875 483.599609375 303.856445312 466.727539062 208.125 c 0
 460.583007812 173.27734375 446.384765625 120.177734375 395.96484375 76.1708984375 c 0
 344.5859375 31.2548828125 245.91015625 0.0400390625 107.796875 0.0400390625 c 2
 12.0068359375 0.0400390625 l 1
 4.5068359375 0.0400390625 l 1
 -2.9931640625 0.0400390625 l 1
 -1.7021484375 7.3603515625 l 1
 -0.4423828125 14.505859375 l 1
 103.653320312 604.859375 l 1
 104.943359375 612.1796875 l 1
 106.266601562 619.6796875 l 1
 113.766601562 619.6796875 l 1
 121.266601562 619.6796875 l 1
 288.65625 619.6796875 l 2
EndSplineSet
EndChar

StartChar: C
Encoding: 21 67 2
Width: 589
VWidth: 0
Flags: W
HStem: 422.667 21G<567.608 575.368> 577.89 55.6299<327.254 503.828>
LayerCount: 2
Fore
SplineSet
466.169921875 8.8505859375 m 0
 325.3828125 -91.0625 165.19921875 -39.091796875 103.84765625 38.927734375 c 0
 54.45703125 101.74609375 33.1123046875 193.461914062 51.3642578125 296.969726562 c 0
 87.95703125 504.5 239.450195312 633.51953125 417.666992188 633.51953125 c 0
 536.455078125 633.51953125 616.502929688 571.552734375 610.7109375 444.50390625 c 2
 610.389648438 437.440429688 l 1
 610.067382812 430.376953125 l 1
 602.833984375 429.091796875 l 1
 595.6015625 427.805664062 l 1
 595.6015625 427.805664062 586.359375 426.1640625 582.58203125 425.438476562 c 2
 575.368164062 424.052734375 l 1
 568.155273438 422.666992188 l 1
 567.608398438 429.55078125 l 1
 567.0625 436.434570312 l 2
 559.466796875 532.103515625 507.956054688 577.889648438 413.227539062 577.889648438 c 0
 284.025390625 577.889648438 170.49609375 435.930664062 146.629882812 300.580078125 c 0
 124.443359375 174.752929688 181.250976562 76.83984375 238.137695312 39.7080078125 c 0
 292.932617188 3.7353515625 425.228515625 18.9892578125 484.328125 98.5703125 c 0
 491.677734375 108.537109375 504.83984375 131.73828125 513.01953125 151.958007812 c 2
 515.37890625 157.7890625 l 1
 517.73828125 163.620117188 l 1
 523.719726562 163.620117188 l 1
 529.700195312 163.620117188 l 1
 553.709960938 163.620117188 l 1
 562.030273438 163.620117188 l 1
 570.349609375 163.620117188 l 1
 568.030273438 155.344726562 l 1
 565.711914062 147.069335938 l 2
 550.529296875 92.8994140625 517.573242188 45.3486328125 466.169921875 8.8505859375 c 0
EndSplineSet
EndChar

StartChar: D
Encoding: 22 68 3
Width: 522
VWidth: 0
Flags: W
HStem: 0 49.8604<102.262 238.115> 569.78 49.8994<193.938 333.408>
LayerCount: 2
Fore
SplineSet
193.9375 569.780273438 m 1
 102.26171875 49.8603515625 l 1
 152.2421875 49.8603515625 l 2
 276.635742188 49.8603515625 398.9375 183.450195312 422.306640625 315.932617188 c 0
 451.728515625 482.791992188 366.9765625 569.780273438 243.91796875 569.780273438 c 2
 193.9375 569.780273438 l 1
115.766601562 619.6796875 m 1
 123.266601562 619.6796875 l 1
 252.716796875 619.6796875 l 2
 489.231445312 619.6796875 551.40625 478.236328125 526.6953125 338.15234375 c 0
 505.297851562 216.80078125 451.30859375 131.42578125 380.641601562 76.9619140625 c 0
 310.08984375 22.505859375 225.016601562 0 143.440429688 0 c 2
 14 0 l 1
 6.5 0 l 1
 -1 0 l 1
 0.322265625 7.5 l 1
 1.61328125 14.818359375 l 1
 105.653320312 604.861328125 l 1
 106.943359375 612.1796875 l 1
 108.266601562 619.6796875 l 1
 115.766601562 619.6796875 l 1
EndSplineSet
EndChar

StartChar: E
Encoding: 23 69 4
Width: 465
VWidth: 0
Flags: W
HStem: 0 49.8799<104.255 414.857> 306.89 49.8799<158.368 353.723> 569.8 49.8799<195.931 520.107>
LayerCount: 2
Fore
SplineSet
338.72265625 306.889648438 m 1
 149.573242188 306.889648438 l 1
 104.254882812 49.8798828125 l 1
 414.333984375 49.8798828125 l 1
 423.208007812 49.8798828125 l 1
 432.081054688 49.8798828125 l 1
 429.059570312 41.1298828125 l 1
 426.0390625 32.380859375 l 1
 419.173828125 12.5009765625 l 1
 417.015625 6.25 l 1
 414.857421875 0 l 1
 408.518554688 0 l 1
 402.1796875 0 l 1
 16 0 l 1
 8.5 0 l 1
 1 0 l 1
 2.322265625 7.5 l 1
 3.61328125 14.818359375 l 1
 107.653320312 604.861328125 l 1
 108.943359375 612.1796875 l 1
 110.266601562 619.6796875 l 1
 117.766601562 619.6796875 l 1
 125.266601562 619.6796875 l 1
 511.446289062 619.6796875 l 1
 518.443359375 619.6796875 l 1
 525.44140625 619.6796875 l 1
 524.694335938 612.69921875 l 1
 523.948242188 605.71875 l 1
 521.822265625 585.838867188 l 1
 520.96484375 577.819335938 l 1
 520.107421875 569.799804688 l 1
 512.069335938 569.799804688 l 1
 504.030273438 569.799804688 l 1
 195.930664062 569.799804688 l 1
 158.368164062 356.76953125 l 1
 347.517578125 356.76953125 l 1
 355.017578125 356.76953125 l 1
 362.517578125 356.76953125 l 1
 361.1953125 349.26953125 l 1
 359.873046875 341.76953125 l 1
 356.3671875 321.889648438 l 1
 355.044921875 314.389648438 l 1
 353.72265625 306.889648438 l 1
 346.22265625 306.889648438 l 1
 338.72265625 306.889648438 l 1
EndSplineSet
EndChar

StartChar: F
Encoding: 24 70 5
Width: 462
VWidth: 0
Flags: W
HStem: 0 21G<1 96.7822> 306.89 49.8799<158.368 353.723> 569.8 49.8799<195.931 523.757>
LayerCount: 2
Fore
SplineSet
524.124023438 619.6796875 m 1
 524.078125 613.4296875 l 1
 524.03125 607.178710938 l 1
 523.885742188 587.298828125 l 1
 523.821289062 578.549804688 l 1
 523.756835938 569.799804688 l 1
 514.883789062 569.799804688 l 1
 506.009765625 569.799804688 l 1
 195.930664062 569.799804688 l 1
 158.368164062 356.76953125 l 1
 347.517578125 356.76953125 l 1
 355.017578125 356.76953125 l 1
 362.517578125 356.76953125 l 1
 361.1953125 349.26953125 l 1
 359.873046875 341.76953125 l 1
 356.3671875 321.889648438 l 1
 355.044921875 314.389648438 l 1
 353.72265625 306.889648438 l 1
 346.22265625 306.889648438 l 1
 338.72265625 306.889648438 l 1
 149.573242188 306.889648438 l 1
 98.072265625 14.81640625 l 1
 96.7822265625 7.5 l 1
 95.4599609375 0 l 1
 87.9599609375 0 l 1
 80.4599609375 0 l 1
 16 0 l 1
 8.5 0 l 1
 1 0 l 1
 2.322265625 7.5 l 1
 3.61328125 14.818359375 l 1
 107.653320312 604.861328125 l 1
 108.943359375 612.1796875 l 1
 110.266601562 619.6796875 l 1
 117.766601562 619.6796875 l 1
 125.266601562 619.6796875 l 1
 511.446289062 619.6796875 l 1
 517.78515625 619.6796875 l 1
 524.124023438 619.6796875 l 1
EndSplineSet
EndChar

StartChar: G
Encoding: 25 71 6
Width: 587
VWidth: 0
Flags: W
HStem: 577.97 55.5498<322.024 491.013>
LayerCount: 2
Fore
SplineSet
559.21484375 412.2109375 m 1
 558.420898438 418.502929688 l 1
 557.625976562 424.794921875 l 2
 543.1328125 539.518554688 485.211914062 577.9609375 407.462890625 577.969726562 c 0
 266.592773438 577.969726562 168.98828125 414.559570312 149.81640625 305.829101562 c 0
 129.092773438 188.297851562 181.612304688 99.8447265625 240.161132812 64.134765625 c 0
 242.225585938 62.873046875 244.34765625 61.673828125 246.5234375 60.5380859375 c 0
 301.752929688 31.703125 388.365234375 44.5 440.239257812 118.495117188 c 0
 458.298828125 144.180664062 469.953125 187.395507812 474.170898438 211.31640625 c 2
 491.114257812 306.8984375 l 1
 492.37890625 314.032226562 l 1
 493.674804688 321.33984375 l 1
 501.16796875 321.33984375 l 1
 508.661132812 321.33984375 l 1
 573.62109375 321.33984375 l 1
 581.127929688 321.33984375 l 1
 588.634765625 321.33984375 l 1
 587.336914062 314.018554688 l 1
 586.069335938 306.872070312 l 1
 569.12890625 211.302734375 l 2
 553.52734375 122.822265625 514.239257812 70.2294921875 464.436523438 34.650390625 c 0
 399.760742188 -11.4326171875 324.68359375 -16.0302734375 296.444335938 -16.0302734375 c 0
 243.795898438 -16.0302734375 165.721679688 -2.5859375 108.3515625 62.599609375 c 0
 57.5546875 120.452148438 37.2734375 206.619140625 54.3759765625 303.610351562 c 0
 71.5185546875 400.834960938 122.71875 497.966796875 194.528320312 555.930664062 c 0
 284.278320312 628.2734375 362.180664062 633.51953125 417.59765625 633.51953125 c 0
 521.69140625 633.51953125 608.375976562 563.620117188 600.956054688 432.901367188 c 2
 600.546875 425.685546875 l 1
 600.137695312 418.470703125 l 1
 592.760742188 417.379882812 l 1
 585.384765625 416.290039062 l 1
 585.384765625 416.290039062 577.830078125 415.17578125 572.564453125 414.336914062 c 2
 565.889648438 413.274414062 l 1
 559.21484375 412.2109375 l 1
EndSplineSet
EndChar

StartChar: H
Encoding: 26 72 7
Width: 532
VWidth: 0
Flags: W
HStem: 0 21G<0 95.793 375.431 471.303> 303.45 49.8799<156.772 428.938> 599.68 20G<107.943 203.737 483.374 579.247>
LayerCount: 2
Fore
SplineSet
579.247070312 619.6796875 m 1
 577.923828125 612.1796875 l 1
 576.633789062 604.861328125 l 1
 472.59375 14.818359375 l 1
 471.302734375 7.5 l 1
 469.98046875 0 l 1
 462.48046875 0 l 1
 454.98046875 0 l 1
 390.430664062 0 l 1
 382.930664062 0 l 1
 375.430664062 0 l 1
 376.752929688 7.5 l 1
 378.04296875 14.814453125 l 1
 428.9375 303.450195312 l 1
 147.977539062 303.450195312 l 1
 97.0830078125 14.814453125 l 1
 95.79296875 7.5 l 1
 94.470703125 0 l 1
 86.970703125 0 l 1
 79.470703125 0 l 1
 15 0 l 1
 7.5 0 l 1
 0 0 l 1
 1.322265625 7.5 l 1
 2.61328125 14.818359375 l 1
 106.653320312 604.861328125 l 1
 107.943359375 612.1796875 l 1
 109.266601562 619.6796875 l 1
 116.766601562 619.6796875 l 1
 124.266601562 619.6796875 l 1
 188.737304688 619.6796875 l 1
 196.237304688 619.6796875 l 1
 203.737304688 619.6796875 l 1
 202.4140625 612.1796875 l 1
 201.12890625 604.890625 l 1
 156.772460938 353.330078125 l 1
 437.732421875 353.330078125 l 1
 482.088867188 604.890625 l 1
 483.374023438 612.1796875 l 1
 484.697265625 619.6796875 l 1
 492.197265625 619.6796875 l 1
 499.697265625 619.6796875 l 1
 564.247070312 619.6796875 l 1
 571.747070312 619.6796875 l 1
 579.247070312 619.6796875 l 1
EndSplineSet
EndChar

StartChar: I
Encoding: 27 73 8
Width: 152
VWidth: 0
Flags: W
HStem: 0 21G<0 95.8721> 599.68 20G<107.943 203.816>
VStem: 0 203.816
LayerCount: 2
Fore
SplineSet
0 0 m 1
 1.322265625 7.5 l 1
 2.61328125 14.818359375 l 1
 106.653320312 604.861328125 l 1
 107.943359375 612.1796875 l 1
 109.266601562 619.6796875 l 1
 116.766601562 619.6796875 l 1
 124.266601562 619.6796875 l 1
 188.81640625 619.6796875 l 1
 196.31640625 619.6796875 l 1
 203.81640625 619.6796875 l 1
 202.493164062 612.1796875 l 1
 201.203125 604.861328125 l 1
 97.1630859375 14.818359375 l 1
 95.8720703125 7.5 l 1
 94.5498046875 0 l 1
 87.0498046875 0 l 1
 79.5498046875 0 l 1
 15 0 l 1
 7.5 0 l 1
 0 0 l 1
EndSplineSet
EndChar

StartChar: J
Encoding: 28 74 9
Width: 293
VWidth: 0
Flags: W
HStem: 599.68 20G<217.943 313.816>
LayerCount: 2
Fore
SplineSet
-20.6728515625 -145.442382812 m 1
 -20.6630859375 -137.060546875 l 1
 -20.654296875 -128.6796875 l 1
 -20.6337890625 -109.049804688 l 1
 -20.626953125 -102.727539062 l 1
 -20.6201171875 -96.40625 l 1
 -14.1806640625 -94.3349609375 l 1
 -7.716796875 -92.2548828125 l 2
 80.947265625 -64.833984375 110.391601562 2.2216796875 119.719726562 55.123046875 c 2
 216.6484375 604.8359375 l 1
 217.943359375 612.1796875 l 1
 219.266601562 619.6796875 l 1
 226.766601562 619.6796875 l 1
 234.266601562 619.6796875 l 1
 298.81640625 619.6796875 l 1
 306.31640625 619.6796875 l 1
 313.81640625 619.6796875 l 1
 312.493164062 612.1796875 l 1
 311.197265625 604.826171875 l 1
 222.801757812 103.514648438 l 2
 216.750976562 69.1943359375 210.295898438 40.986328125 202.888671875 15.662109375 c 0
 179.299804688 -62.8818359375 105.70703125 -109.618164062 -3.5478515625 -140.428710938 c 2
 -12.099609375 -142.932617188 l 1
 -20.6728515625 -145.442382812 l 1
EndSplineSet
EndChar

StartChar: K
Encoding: 29 75 10
Width: 489
VWidth: 0
Flags: W
HStem: 0 21G<0 95.7822 332.729 459.562> 599.68 20G<107.943 203.727 466.725 537.932>
LayerCount: 2
Fore
SplineSet
523.514648438 607.278320312 m 1
 509.51171875 595.231445312 l 1
 215.34765625 342.1640625 l 1
 442.50390625 23.9013671875 l 1
 450.907226562 12.1259765625 l 1
 459.5625 0 l 1
 443.108398438 0 l 1
 426.909179688 0 l 1
 341.359375 0 l 1
 337.9375 0 l 1
 334.515625 0 l 1
 332.728515625 2.5849609375 l 1
 330.940429688 5.169921875 l 1
 143.243164062 276.6640625 l 1
 97.1044921875 15 l 1
 95.7822265625 7.5 l 1
 94.4599609375 0 l 1
 86.9599609375 0 l 1
 79.4599609375 0 l 1
 15 0 l 1
 7.5 0 l 1
 0 0 l 1
 1.322265625 7.5 l 1
 2.61328125 14.818359375 l 1
 106.653320312 604.861328125 l 1
 107.943359375 612.1796875 l 1
 109.266601562 619.6796875 l 1
 116.766601562 619.6796875 l 1
 124.266601562 619.6796875 l 1
 188.7265625 619.6796875 l 1
 196.2265625 619.6796875 l 1
 203.7265625 619.6796875 l 1
 202.403320312 612.1796875 l 1
 201.081054688 604.6796875 l 1
 153.939453125 337.325195312 l 1
 464.087890625 614.958007812 l 1
 466.724609375 617.318359375 l 1
 469.362304688 619.6796875 l 1
 472.604492188 619.6796875 l 1
 475.845703125 619.6796875 l 1
 502.956054688 619.6796875 l 1
 520.299804688 619.6796875 l 1
 537.931640625 619.6796875 l 1
 523.514648438 607.278320312 l 1
EndSplineSet
EndChar

StartChar: L
Encoding: 30 76 11
Width: 455
VWidth: 0
Flags: W
HStem: 0 49.8799<103.255 413.857> 599.68 20G<107.943 203.727>
LayerCount: 2
Fore
SplineSet
431.081054688 49.8798828125 m 1
 428.059570312 41.1298828125 l 1
 425.0390625 32.380859375 l 1
 418.173828125 12.5009765625 l 1
 416.015625 6.25 l 1
 413.857421875 0 l 1
 407.518554688 0 l 1
 401.1796875 0 l 1
 15 0 l 1
 7.5 0 l 1
 0 0 l 1
 1.322265625 7.5 l 1
 2.61328125 14.818359375 l 1
 106.653320312 604.861328125 l 1
 107.943359375 612.1796875 l 1
 109.266601562 619.6796875 l 1
 116.766601562 619.6796875 l 1
 124.266601562 619.6796875 l 1
 188.7265625 619.6796875 l 1
 196.2265625 619.6796875 l 1
 203.7265625 619.6796875 l 1
 202.403320312 612.1796875 l 1
 201.116210938 604.875 l 1
 103.254882812 49.8798828125 l 1
 413.333984375 49.8798828125 l 1
 422.208007812 49.8798828125 l 1
 431.081054688 49.8798828125 l 1
EndSplineSet
EndChar

StartChar: M
Encoding: 31 77 12
Width: 634
VWidth: 0
Flags: W
HStem: 0 21G<0.519531 51.6318 473.452 569.292> 599.68 20G<108.463 188.309 598.16 677.275>
LayerCount: 2
Fore
SplineSet
675.948242188 612.174804688 m 1
 674.651367188 604.849609375 l 1
 652.350585938 478.831054688 l 1
 570.37109375 13.447265625 l 1
 569.291992188 7.322265625 l 1
 568.002929688 0 l 1
 560.500976562 0 l 1
 553 0 l 1
 488.450195312 0 l 1
 480.951171875 0 l 1
 473.452148438 0 l 1
 474.7734375 7.4990234375 l 1
 474.772460938 7.4990234375 l 1
 554.15234375 458.072265625 l 1
 291.598632812 7.5 l 1
 284.81640625 5.9765625 l 1
 275.477539062 -10.05078125 l 1
 271.001953125 5.658203125 l 1
 266.526367188 21.3681640625 l 1
 135.297851562 481.993164062 l 1
 52.9541015625 15 l 1
 51.6318359375 7.5 l 1
 50.3095703125 0 l 1
 42.8095703125 0 l 1
 35.3095703125 0 l 1
 15.51953125 0 l 1
 8.01953125 0 l 1
 0.51953125 0 l 1
 1.841796875 7.5 l 1
 3.1328125 14.818359375 l 1
 107.172851562 604.861328125 l 1
 108.462890625 612.1796875 l 1
 109.786132812 619.6796875 l 1
 117.286132812 619.6796875 l 1
 124.786132812 619.6796875 l 1
 177.456054688 619.6796875 l 1
 182.263671875 619.6796875 l 1
 187.072265625 619.6796875 l 1
 188.30859375 615.310546875 l 1
 189.545898438 610.94140625 l 1
 322.28125 142.036132812 l 1
 595.434570312 610.333984375 l 1
 598.16015625 615.006835938 l 1
 600.88671875 619.6796875 l 1
 605.931640625 619.6796875 l 1
 610.9765625 619.6796875 l 1
 662.266601562 619.6796875 l 1
 669.771484375 619.6796875 l 1
 677.275390625 619.6796875 l 1
 675.948242188 612.174804688 l 1
EndSplineSet
EndChar

StartChar: N
Encoding: 32 78 13
Width: 565
VWidth: 0
Flags: W
HStem: 0 21G<-0.270508 50.8525> 599.68 20G<107.673 192.121 553.153 604.267>
LayerCount: 2
Fore
SplineSet
554.4765625 619.6796875 m 1
 561.9765625 619.6796875 l 1
 569.4765625 619.6796875 l 1
 589.266601562 619.6796875 l 1
 596.766601562 619.6796875 l 1
 604.266601562 619.6796875 l 1
 602.943359375 612.1796875 l 1
 601.653320312 604.861328125 l 1
 496.112304688 6.3095703125 l 1
 494.790039062 -1.1904296875 l 1
 493.467773438 -8.6904296875 l 1
 485.967773438 -8.6904296875 l 1
 478.467773438 -8.6904296875 l 1
 458.84765625 -8.6904296875 l 1
 455.079101562 -8.6904296875 l 1
 451.309570312 -8.6904296875 l 1
 449.59375 -5.666015625 l 1
 447.877929688 -2.6416015625 l 1
 143.619140625 533.60546875 l 1
 52.1748046875 15 l 1
 50.8525390625 7.5 l 1
 49.5302734375 0 l 1
 42.0302734375 0 l 1
 34.5302734375 0 l 1
 14.7294921875 0 l 1
 7.2294921875 0 l 1
 -0.2705078125 0 l 1
 1.0517578125 7.5 l 1
 2.3427734375 14.818359375 l 1
 106.3828125 604.861328125 l 1
 107.672851562 612.1796875 l 1
 108.99609375 619.6796875 l 1
 116.49609375 619.6796875 l 1
 123.99609375 619.6796875 l 1
 182.866210938 619.6796875 l 1
 186.63671875 619.6796875 l 1
 190.40625 619.6796875 l 1
 192.12109375 616.654296875 l 1
 193.836914062 613.627929688 l 1
 468.115234375 129.903320312 l 1
 551.831054688 604.6796875 l 1
 553.153320312 612.1796875 l 1
 554.4765625 619.6796875 l 1
EndSplineSet
EndChar

StartChar: O
Encoding: 33 79 14
Width: 563
VWidth: 0
Flags: W
HStem: -16.0596 51.0791<211.497 339.9> 583.15 50.3691<293.891 433.316>
LayerCount: 2
Fore
SplineSet
254.818359375 -16.0595703125 m 0
 60.21875 -16.0595703125 30.1513671875 166.799804688 55.322265625 309.551757812 c 0
 76.541015625 429.888671875 162.762695312 633.51953125 376.916992188 633.51953125 c 0
 562.26953125 633.51953125 615.454101562 486.563476562 584.232421875 309.551757812 c 0
 565.041015625 200.711914062 490.47265625 -16.0595703125 254.818359375 -16.0595703125 c 0
488.0859375 307.021484375 m 0
 515.228515625 460.951171875 472.091796875 583.150390625 365.825195312 583.150390625 c 0
 256.330078125 583.150390625 174.592773438 443.170898438 150.5859375 307.021484375 c 0
 124.663085938 160.001953125 170.584960938 35.01953125 282.014648438 35.01953125 c 0
 361.271484375 35.01953125 461.81640625 158.038085938 488.0859375 307.021484375 c 0
EndSplineSet
EndChar

StartChar: P
Encoding: 34 80 15
Width: 462
VWidth: 0
Flags: W
HStem: 0 21G<0 95.7822> 206.36 49.6992<139.641 287.59> 569.39 50.29<194.889 341.734>
LayerCount: 2
Fore
SplineSet
400.424804688 412.834960938 m 0
 413.133789062 484.912109375 369.659179688 569.389648438 254.388671875 569.389648438 c 2
 194.888671875 569.389648438 l 1
 139.640625 256.059570312 l 1
 165.451171875 256.059570312 l 2
 335.146484375 256.059570312 388.43359375 344.831054688 400.424804688 412.834960938 c 0
124.266601562 619.6796875 m 1
 257.666992188 619.6796875 l 2
 344.137695312 619.6796875 449.48046875 614.4140625 490.834960938 501.080078125 c 0
 516.581054688 430.50390625 484.196289062 338.565429688 432.530273438 288.911132812 c 0
 350.526367188 210.123046875 279.760742188 206.360351562 147.8671875 206.360351562 c 2
 130.846679688 206.360351562 l 1
 97.056640625 14.7275390625 l 1
 95.7822265625 7.5 l 1
 94.4599609375 0 l 1
 86.9599609375 0 l 1
 79.4599609375 0 l 1
 15 0 l 1
 7.5 0 l 1
 0 0 l 1
 1.322265625 7.5 l 1
 2.61328125 14.818359375 l 1
 106.653320312 604.861328125 l 1
 107.943359375 612.1796875 l 1
 109.266601562 619.6796875 l 1
 116.766601562 619.6796875 l 1
 124.266601562 619.6796875 l 1
EndSplineSet
EndChar

StartChar: Q
Encoding: 35 81 16
Width: 572
VWidth: 0
Flags: W
HStem: 583.17 50.3496<293.306 432.864>
LayerCount: 2
Fore
SplineSet
487.756835938 307.249023438 m 0
 514.919921875 461.30078125 471.705078125 583.169921875 365.297851562 583.169921875 c 0
 255.655273438 583.169921875 173.951171875 443.5 149.926757812 307.249023438 c 0
 123.969726562 160.04296875 169.864257812 34.259765625 281.360351562 34.259765625 c 0
 360.642578125 34.259765625 461.455078125 158.084960938 487.756835938 307.249023438 c 0
376.426757812 633.51953125 m 0
 561.830078125 633.51953125 615.223632812 487.014648438 583.994140625 309.904296875 c 0
 566.77734375 212.262695312 505.69921875 30.58984375 328.250976562 -8.4921875 c 1
 357.112304688 -63.701171875 399.995117188 -77.8662109375 480.747070312 -97.833984375 c 2
 487.615234375 -99.5322265625 l 1
 494.481445312 -101.229492188 l 1
 491.645507812 -108.42578125 l 1
 488.80859375 -115.622070312 l 2
 486.62109375 -121.173828125 483.368164062 -129.35546875 483.365234375 -129.360351562 c 2
 481.02734375 -135.240234375 l 1
 478.690429688 -141.120117188 l 1
 472.66796875 -141.120117188 l 1
 466.646484375 -141.120117188 l 2
 354.872070312 -141.120117188 259.556640625 -117.393554688 229.877929688 -15.4111328125 c 1
 55.19921875 -0.3525390625 30.599609375 173.541015625 54.62109375 309.771484375 c 0
 75.869140625 430.27734375 162.05859375 633.51953125 376.426757812 633.51953125 c 0
EndSplineSet
EndChar

StartChar: R
Encoding: 36 82 17
Width: 519
VWidth: 0
Flags: W
HStem: 0 21G<0 95.7822 374.716 491.175> 310.792 34.6777<155.387 219.328> 569.34 50.3301<194.86 350.675>
LayerCount: 2
Fore
SplineSet
254.389648438 569.33984375 m 2
 194.860351562 569.33984375 l 1
 155.38671875 345.469726562 l 1
 181.266601562 345.469726562 l 2
 328.114257812 345.469726562 378.119140625 389.161132812 390.124023438 457.241210938 c 0
 402.084960938 525.078125 356.252929688 569.33984375 254.389648438 569.33984375 c 2
485.150390625 512.334960938 m 0
 486.45703125 505.98046875 487.370117188 499.733398438 487.907226562 493.595703125 c 0
 497.530273438 383.587890625 388.459960938 323.5 326.25 305.329101562 c 1
 476.73046875 7.5 l 1
 485.006835938 3.2021484375 l 1
 491.174804688 0 l 1
 476.978515625 0 l 1
 462.970703125 0 l 1
 384.310546875 0 l 1
 380.33984375 0 l 1
 376.369140625 0 l 1
 374.715820312 3.2841796875 l 1
 373.0625 6.568359375 l 1
 219.328125 312.005859375 l 1
 194.236328125 310.984375 166.129882812 310.83984375 149.260742188 310.791992188 c 1
 97.1044921875 15 l 1
 95.7822265625 7.5 l 1
 94.4599609375 0 l 1
 86.9599609375 0 l 1
 79.4599609375 0 l 1
 15 0 l 1
 7.5 0 l 1
 0 0 l 1
 1.322265625 7.5 l 1
 2.61328125 14.818359375 l 1
 106.651367188 604.8515625 l 1
 107.942382812 612.169921875 l 1
 109.264648438 619.669921875 l 1
 116.764648438 619.669921875 l 1
 124.264648438 619.669921875 l 1
 257.665039062 619.669921875 l 2
 341.602539062 619.669921875 462.171875 624.35546875 485.150390625 512.334960938 c 0
EndSplineSet
EndChar

StartChar: S
Encoding: 37 83 18
Width: 491
VWidth: 0
Flags: W
HStem: -16.0703 54.8799<170.41 319.191> 434.096 21G<449.986 457.134> 583.63 49.8896<249.12 411.144>
VStem: 37.0527 46.9707<128.965 238.757>
LayerCount: 2
Fore
SplineSet
192.654296875 488.149414062 m 0
 182.975585938 433.26171875 206.185546875 386.939453125 299.88671875 361.684570312 c 0
 425.571289062 327.750976562 499.608398438 287.868164062 478.0703125 165.71875 c 0
 458.6953125 55.8359375 340.876953125 -16.0703125 231.985351562 -16.0703125 c 0
 130.719726562 -16.0703125 67.31640625 41.421875 37.880859375 114.788085938 c 2
 37.466796875 115.8203125 l 1
 37.052734375 116.852539062 l 1
 37.0107421875 118.018554688 l 1
 36.970703125 119.184570312 l 2
 34.8271484375 179.905273438 41.7685546875 231.024414062 41.8330078125 231.50390625 c 2
 42.8095703125 238.756835938 l 1
 43.78515625 246.009765625 l 1
 51.1201171875 246.548828125 l 1
 58.453125 247.087890625 l 1
 58.453125 247.087890625 66.619140625 247.6875 71.5400390625 248.104492188 c 2
 78.994140625 248.737304688 l 1
 86.4462890625 249.369140625 l 1
 85.9150390625 242.040039062 l 1
 85.3857421875 234.711914062 l 2
 84.921875 228.3046875 83.7900390625 211.500976562 84.0234375 203.983398438 c 0
 87.2119140625 113.162109375 169.415039062 38.8095703125 239.762695312 38.8095703125 c 0
 295.090820312 38.8095703125 384.709960938 81.77734375 397.401367188 153.756835938 c 0
 408.790039062 218.341796875 366.922851562 248.33203125 263.150390625 275.137695312 c 0
 127.560546875 310.251953125 90.046875 378.659179688 107.583984375 478.115234375 c 0
 123.055664062 565.862304688 226.688476562 633.51953125 341.526367188 633.51953125 c 0
 423.877929688 633.51953125 456.998046875 613.751953125 496.34765625 574.041992188 c 2
 497.499023438 572.880859375 l 1
 498.6484375 571.719726562 l 1
 499.045898438 570.073242188 l 1
 499.442382812 568.426757812 l 2
 509.568359375 526.39453125 494.766601562 452.794921875 494.66796875 452.280273438 c 2
 493.444335938 445.73828125 l 1
 492.216796875 439.177734375 l 1
 485.563476562 438.375 l 1
 478.911132812 437.572265625 l 2
 478.901367188 437.571289062 470.37109375 436.541015625 465.03515625 435.923828125 c 2
 457.133789062 435.009765625 l 1
 449.231445312 434.095703125 l 1
 449.986328125 441.865234375 l 1
 450.740234375 449.634765625 l 2
 451.108398438 453.428710938 451.775390625 463.036132812 451.934570312 471.333007812 c 0
 454.032226562 569.349609375 372.93359375 583.629882812 337.219726562 583.629882812 c 0
 270.607421875 583.629882812 203.9921875 552.452148438 192.654296875 488.149414062 c 0
EndSplineSet
EndChar

StartChar: T
Encoding: 38 84 19
Width: 572
VWidth: 0
Flags: W
HStem: 0 21G<218.899 314.692> 569.89 49.79<108.267 319.387 413.857 633.667>
LayerCount: 2
Fore
SplineSet
642.446289062 619.6796875 m 1
 641.123046875 612.1796875 l 1
 639.80078125 604.6796875 l 1
 636.311523438 584.889648438 l 1
 634.989257812 577.389648438 l 1
 633.666992188 569.889648438 l 1
 626.166992188 569.889648438 l 1
 618.666992188 569.889648438 l 1
 413.857421875 569.889648438 l 1
 315.98046875 14.8046875 l 1
 314.692382812 7.5 l 1
 313.370117188 0 l 1
 305.870117188 0 l 1
 298.370117188 0 l 1
 233.899414062 0 l 1
 226.399414062 0 l 1
 218.899414062 0 l 1
 220.221679688 7.5 l 1
 221.509765625 14.8046875 l 1
 319.38671875 569.889648438 l 1
 114.487304688 569.889648438 l 1
 106.987304688 569.889648438 l 1
 99.4873046875 569.889648438 l 1
 100.809570312 577.389648438 l 1
 102.131835938 584.889648438 l 1
 105.62109375 604.6796875 l 1
 106.943359375 612.1796875 l 1
 108.266601562 619.6796875 l 1
 115.766601562 619.6796875 l 1
 123.266601562 619.6796875 l 1
 627.446289062 619.6796875 l 1
 634.946289062 619.6796875 l 1
 642.446289062 619.6796875 l 1
EndSplineSet
EndChar

StartChar: U
Encoding: 39 85 20
Width: 488
VWidth: 0
Flags: W
HStem: -16.0703 47.3799<156.503 329.11> 599.68 19.9902G<107.944 203.725 487.134 538.257>
LayerCount: 2
Fore
SplineSet
488.45703125 619.6796875 m 1
 495.95703125 619.6796875 l 1
 503.466796875 619.6796875 l 1
 523.256835938 619.6796875 l 1
 530.756835938 619.6796875 l 1
 538.256835938 619.6796875 l 1
 536.93359375 612.1796875 l 1
 535.642578125 604.854492188 l 1
 460.440429688 178.36328125 l 2
 438.359375 53.1376953125 361.026367188 -16.0703125 216.135742188 -16.0703125 c 0
 91.748046875 -16.0703125 6.0146484375 34.6181640625 30.984375 176.229492188 c 2
 106.651367188 604.84765625 l 1
 107.944335938 612.171875 l 1
 109.267578125 619.669921875 l 1
 116.766601562 619.669921875 l 1
 124.264648438 619.669921875 l 1
 188.724609375 619.669921875 l 1
 196.224609375 619.669921875 l 1
 203.724609375 619.669921875 l 1
 202.40234375 612.169921875 l 1
 201.11328125 604.858398438 l 1
 125.383789062 175.379882812 l 2
 105.525390625 62.755859375 164.78515625 31.3095703125 235.590820312 31.3095703125 c 0
 302.2109375 31.3095703125 388.766601562 54.310546875 410.87890625 179.716796875 c 2
 485.844726562 604.868164062 l 1
 487.133789062 612.1796875 l 1
 488.45703125 619.6796875 l 1
EndSplineSet
EndChar

StartChar: V
Encoding: 40 86 21
Width: 520
VWidth: 0
Flags: W
HStem: 599.68 20G<107.954 209.795 542.369 597.323>
LayerCount: 2
Fore
SplineSet
544.875 619.6796875 m 1
 550.55078125 619.6796875 l 1
 556.2265625 619.6796875 l 1
 577.407226562 619.6796875 l 1
 587.333007812 619.6796875 l 1
 597.323242188 619.6796875 l 1
 592.8828125 610.311523438 l 1
 588.56640625 601.204101562 l 1
 301.168945312 -5.189453125 l 1
 298.669921875 -10.6181640625 l 1
 296.16015625 -16.0703125 l 1
 290.493164062 -16.0703125 l 1
 284.826171875 -16.0703125 l 1
 242.396484375 -16.0703125 l 1
 237.096679688 -16.0703125 l 1
 231.796875 -16.0703125 l 1
 230.908203125 -11.0751953125 l 1
 230.024414062 -6.10546875 l 1
 111.727539062 600.33203125 l 1
 109.870117188 609.857421875 l 1
 107.954101562 619.6796875 l 1
 118.65234375 619.6796875 l 1
 129.266601562 619.6796875 l 1
 198.296875 619.6796875 l 1
 203.604492188 619.6796875 l 1
 208.912109375 619.6796875 l 1
 209.794921875 614.673828125 l 1
 210.677734375 609.668945312 l 1
 302.213867188 90.56640625 l 1
 539.864257812 608.754882812 l 1
 542.369140625 614.216796875 l 1
 544.875 619.6796875 l 1
EndSplineSet
EndChar

StartChar: W
Encoding: 41 87 22
Width: 769
VWidth: 0
Flags: W
HStem: 599.68 20G<109.953 211.876 348.221 454.101 541.886 597.293 783.541 838.392>
LayerCount: 2
Fore
SplineSet
786.045898438 619.6796875 m 1
 791.721679688 619.6796875 l 1
 797.396484375 619.6796875 l 1
 818.4765625 619.6796875 l 1
 828.40234375 619.6796875 l 1
 838.391601562 619.6796875 l 1
 833.951171875 610.311523438 l 1
 829.635742188 601.204101562 l 1
 542.249023438 -5.189453125 l 1
 539.75 -10.6181640625 l 1
 537.241210938 -16.0703125 l 1
 531.573242188 -16.0703125 l 1
 525.90625 -16.0703125 l 1
 483.56640625 -16.0703125 l 1
 478.225585938 -16.0703125 l 1
 472.885742188 -16.0703125 l 1
 472.029296875 -11.0234375 l 1
 471.171875 -5.9765625 l 1
 425.322265625 264.026367188 l 1
 303.204101562 -5.05859375 l 1
 300.740234375 -10.486328125 l 1
 298.247070312 -15.98046875 l 1
 292.544921875 -15.98046875 l 1
 286.842773438 -15.98046875 l 1
 244.413085938 -15.98046875 l 1
 239.11328125 -15.98046875 l 1
 233.814453125 -15.98046875 l 1
 232.923828125 -10.9853515625 l 1
 232.041015625 -6.0166015625 l 1
 113.731445312 600.313476562 l 1
 111.869140625 609.857421875 l 1
 109.953125 619.6796875 l 1
 120.65234375 619.6796875 l 1
 131.266601562 619.6796875 l 1
 200.376953125 619.6796875 l 1
 205.685546875 619.6796875 l 1
 210.994140625 619.6796875 l 1
 211.875976562 614.672851562 l 1
 212.7578125 609.666015625 l 1
 304.115234375 91.0908203125 l 1
 405.483398438 315.640625 l 1
 352.013671875 599.541015625 l 1
 350.1171875 609.610351562 l 1
 348.220703125 619.6796875 l 1
 358.939453125 619.6796875 l 1
 369.657226562 619.6796875 l 1
 442.376953125 619.6796875 l 1
 447.873046875 619.6796875 l 1
 453.370117188 619.6796875 l 1
 454.100585938 614.438476562 l 1
 454.83203125 609.197265625 l 1
 475.643554688 459.984375 l 1
 539.453125 608.368164062 l 1
 541.885742188 614.024414062 l 1
 544.317382812 619.6796875 l 1
 550.15234375 619.6796875 l 1
 555.987304688 619.6796875 l 1
 577.846679688 619.6796875 l 1
 587.5703125 619.6796875 l 1
 597.29296875 619.6796875 l 1
 593.166015625 610.275390625 l 1
 589.037109375 600.870117188 l 1
 489.463867188 373.98828125 l 1
 542.924804688 89.74609375 l 1
 781.034179688 608.756835938 l 1
 783.541015625 614.21875 l 1
 786.045898438 619.6796875 l 1
EndSplineSet
EndChar

StartChar: X
Encoding: 42 88 23
Width: 509
VWidth: 0
Flags: W
HStem: 0 21G<14.167 75.9551 378.019 489.92> 599.51 20G<107.236 210.468 498.298 559.98>
LayerCount: 2
Fore
SplineSet
107.236328125 619.509765625 m 1
 125.236328125 619.509765625 l 1
 200.436523438 619.509765625 l 1
 204.680664062 619.509765625 l 1
 208.924804688 619.509765625 l 1
 210.467773438 615.872070312 l 1
 212.01171875 612.233398438 l 1
 314.275390625 371.237304688 l 1
 495.47265625 612.1640625 l 1
 498.297851562 615.921875 l 1
 501.125 619.6796875 l 1
 505.4609375 619.6796875 l 1
 509.796875 619.6796875 l 1
 533.626953125 619.6796875 l 1
 546.723632812 619.6796875 l 1
 559.98046875 619.6796875 l 1
 552.418945312 615.528320312 l 1
 545.08203125 611.5 l 1
 336.899414062 338.69140625 l 1
 477.390625 7.5 l 1
 483.561523438 3.8056640625 l 1
 489.919921875 0 l 1
 476.501953125 0 l 1
 463.25 0 l 1
 388.049804688 0 l 1
 383.805664062 0 l 1
 379.561523438 0 l 1
 378.018554688 3.6376953125 l 1
 376.474609375 7.2763671875 l 1
 268.823242188 260.961914062 l 1
 78.78125 7.537109375 l 1
 75.955078125 3.7685546875 l 1
 73.12890625 0 l 1
 68.78515625 0 l 1
 64.4404296875 0 l 1
 40.5205078125 0 l 1
 27.423828125 0 l 1
 14.1669921875 0 l 1
 21.6669921875 3.8056640625 l 1
 28.9453125 7.5 l 1
 246.3359375 292.436523438 l 1
 107.236328125 619.509765625 l 1
EndSplineSet
EndChar

StartChar: Y
Encoding: 43 89 24
Width: 544
VWidth: 0
Flags: W
HStem: 0 21G<218.5 314.372> 599.68 20G<109.553 219.469 582.177 642.455>
LayerCount: 2
Fore
SplineSet
585.001953125 619.6796875 m 1
 589.369140625 619.6796875 l 1
 593.736328125 619.6796875 l 1
 616.545898438 619.6796875 l 1
 629.422851562 619.6796875 l 1
 642.455078125 619.6796875 l 1
 633.967773438 608.680664062 l 1
 625.733398438 598.009765625 l 1
 357.115234375 249.909179688 l 1
 315.663085938 14.8203125 l 1
 314.372070312 7.5 l 1
 313.049804688 0 l 1
 305.549804688 0 l 1
 298.049804688 0 l 1
 233.5 0 l 1
 226 0 l 1
 218.5 0 l 1
 219.822265625 7.5 l 1
 221.11328125 14.8203125 l 1
 262.139648438 247.493164062 l 1
 118.403320312 598.092773438 l 1
 114.043945312 608.72265625 l 1
 109.552734375 619.6796875 l 1
 122.486328125 619.6796875 l 1
 135.266601562 619.6796875 l 1
 209.196289062 619.6796875 l 1
 213.59765625 619.6796875 l 1
 218 619.6796875 l 1
 219.46875 615.836914062 l 1
 220.936523438 611.993164062 l 1
 342.549804688 293.745117188 l 1
 579.350585938 612.083007812 l 1
 582.176757812 615.881835938 l 1
 585.001953125 619.6796875 l 1
EndSplineSet
EndChar

StartChar: Z
Encoding: 44 90 25
Width: 505
VWidth: 0
Flags: W
HStem: 0 49.7998<123.315 460.34> 569.89 49.79<122.267 428.021>
LayerCount: 2
Fore
SplineSet
469.12109375 49.7998046875 m 1
 467.798828125 42.2998046875 l 1
 466.475585938 34.7998046875 l 1
 462.984375 15 l 1
 461.662109375 7.5 l 1
 460.33984375 0 l 1
 452.83984375 0 l 1
 445.33984375 0 l 1
 12.6796875 0 l 1
 5.1796875 0 l 1
 -2.3203125 0 l 1
 -0.998046875 7.5 l 1
 0.2900390625 14.8046875 l 1
 3.57421875 33.431640625 l 1
 3.916015625 35.3701171875 l 1
 4.2744140625 37.4033203125 l 1
 5.66015625 39.14453125 l 1
 6.990234375 40.8154296875 l 1
 428.020507812 569.889648438 l 1
 128.487304688 569.889648438 l 1
 120.987304688 569.889648438 l 1
 113.487304688 569.889648438 l 1
 114.809570312 577.389648438 l 1
 116.131835938 584.889648438 l 1
 119.62109375 604.6796875 l 1
 120.943359375 612.1796875 l 1
 122.266601562 619.6796875 l 1
 129.766601562 619.6796875 l 1
 137.266601562 619.6796875 l 1
 549.696289062 619.6796875 l 1
 562.797851562 619.6796875 l 1
 576.0703125 619.6796875 l 1
 568.490234375 615.525390625 l 1
 561.145507812 611.5 l 1
 123.315429688 49.7998046875 l 1
 454.12109375 49.7998046875 l 1
 461.62109375 49.7998046875 l 1
 469.12109375 49.7998046875 l 1
EndSplineSet
EndChar

StartChar: comma
Encoding: 2 44 26
Width: 196
VWidth: 0
Flags: W
HStem: -55.7598 175.05
VStem: 8.87988 139.929<6.10609 91.5973>
LayerCount: 2
Fore
SplineSet
7.861328125 -28.115234375 m 1
 18.146484375 -24.7294921875 l 1
 25.63671875 -22.2626953125 l 2
 32.275390625 -20.0771484375 43.056640625 -16.4853515625 44.4990234375 -16 c 0
 45.2490234375 -15.736328125 45.87109375 -15.4931640625 45.87109375 -15.4931640625 c 1
 18.962890625 -6.560546875 3.43359375 19.4716796875 8.8798828125 50.3603515625 c 0
 15.5908203125 88.41796875 51.9580078125 119.290039062 90.083984375 119.290039062 c 0
 127.650390625 119.290039062 154.59765625 93.56640625 148.80859375 60.732421875 c 0
 145.837890625 43.8857421875 143.040039062 32.1123046875 132.641601562 14.1875 c 0
 115.0546875 -16.0380859375 78.4375 -29.8046875 44.36328125 -44.63671875 c 2
 37.1220703125 -48.3359375 l 1
 29.748046875 -52.103515625 l 1
 21.16796875 -55.759765625 l 1
 7.861328125 -28.115234375 l 1
EndSplineSet
EndChar

StartChar: hyphen
Encoding: 3 45 27
Width: 291
VWidth: 0
Flags: W
HStem: 153.729 94.5703<43.7822 273.376>
VStem: 27.1064 262.945
LayerCount: 2
Fore
SplineSet
43.7822265625 248.298828125 m 1
 51.2822265625 248.298828125 l 1
 58.7822265625 248.298828125 l 1
 275.051757812 248.298828125 l 1
 282.551757812 248.298828125 l 1
 290.051757812 248.298828125 l 1
 288.728515625 240.798828125 l 1
 287.40625 233.298828125 l 1
 276.020507812 168.728515625 l 1
 274.698242188 161.228515625 l 1
 273.375976562 153.728515625 l 1
 265.875976562 153.728515625 l 1
 258.375976562 153.728515625 l 1
 42.1064453125 153.728515625 l 1
 34.6064453125 153.728515625 l 1
 27.1064453125 153.728515625 l 1
 28.4287109375 161.228515625 l 1
 29.7509765625 168.728515625 l 1
 41.13671875 233.298828125 l 1
 42.458984375 240.798828125 l 1
 43.7822265625 248.298828125 l 1
EndSplineSet
EndChar

StartChar: period
Encoding: 4 46 28
Width: 162
VWidth: 0
Flags: W
HStem: -16 138.119<37.4983 119.334>
VStem: 9.35547 138.119<11.7397 94.3753>
LayerCount: 2
Fore
SplineSet
66.23828125 -16 m 0
 28.0966796875 -16 2.6298828125 14.916015625 9.35546875 53.0595703125 c 0
 16.0810546875 91.201171875 52.44921875 122.119140625 90.5927734375 122.119140625 c 0
 128.737304688 122.119140625 154.198242188 91.19140625 147.474609375 53.0595703125 c 0
 140.75 14.91796875 104.381835938 -16 66.23828125 -16 c 0
EndSplineSet
EndChar

StartChar: slash
Encoding: 5 47 29
Width: 231
VWidth: 0
Flags: W
LayerCount: 2
Fore
SplineSet
-0.7861328125 -4.4560546875 m 5
 2.5029296875 2.609375 l 5
 294.8359375 628.036132812 l 5
 298.275390625 635.560546875 l 5
 300.819335938 637.967773438 l 5
 307.809570312 635.560546875 l 5
 314.798828125 633.153320312 l 6
 321.848632812 630.725585938 332.936523438 626.796875 332.936523438 626.796875 c 5
 339.323242188 624.58984375 l 5
 345.83203125 622.33984375 l 5
 343.463867188 620.403320312 l 5
 340.317382812 613.666015625 l 5
 47.5927734375 -10.5859375 l 5
 44.3173828125 -17.7275390625 l 5
 41.9560546875 -19.6533203125 l 5
 35.150390625 -17.7275390625 l 5
 28.345703125 -15.80078125 l 6
 21.296875 -13.814453125 10.556640625 -10.65625 10.5380859375 -10.6513671875 c 6
 3.66015625 -8.623046875 l 5
 -3.2607421875 -6.58203125 l 5
 -0.7861328125 -4.4560546875 l 5
EndSplineSet
EndChar

StartChar: zero
Encoding: 6 48 30
Width: 510
VWidth: 0
Flags: W
HStem: -16.0801 49.8604<206.371 317.276> 583.66 49.8496<276.061 409.262>
LayerCount: 2
Fore
SplineSet
55.3740234375 314.041015625 m 0
 96.140625 545.23828125 224.809570312 633.509765625 364.71484375 633.509765625 c 0
 487.750976562 633.509765625 575.313476562 553.765625 533.811523438 318.397460938 c 0
 501.842773438 137.08984375 420.02734375 -16.0703125 252.344726562 -16.080078125 c 0
 85.185546875 -16.080078125 21.5908203125 122.44921875 55.3740234375 314.041015625 c 0
439.202148438 318.341796875 m 0
 464.68359375 462.849609375 449.989257812 583.66015625 349.5546875 583.66015625 c 0
 241.997070312 583.66015625 176.926757812 467.013671875 151.234375 321.302734375 c 0
 120.25390625 145.604492188 185.475585938 33.7802734375 254.016601562 33.7802734375 c 0
 322.515625 33.7802734375 401.603515625 105.106445312 439.202148438 318.341796875 c 0
EndSplineSet
EndChar

StartChar: one
Encoding: 7 49 31
Width: 161
VWidth: 0
Flags: W
HStem: 0 21G<1 96.8721> 599.68 20G<108.943 204.816>
VStem: 1 203.816
LayerCount: 2
Fore
SplineSet
1 0 m 1
 2.322265625 7.5 l 1
 3.61328125 14.818359375 l 1
 107.653320312 604.861328125 l 1
 108.943359375 612.1796875 l 1
 110.266601562 619.6796875 l 1
 117.766601562 619.6796875 l 1
 125.266601562 619.6796875 l 1
 189.81640625 619.6796875 l 1
 197.31640625 619.6796875 l 1
 204.81640625 619.6796875 l 1
 203.493164062 612.1796875 l 1
 202.203125 604.861328125 l 1
 98.1630859375 14.818359375 l 1
 96.8720703125 7.5 l 1
 95.5498046875 0 l 1
 88.0498046875 0 l 1
 80.5498046875 0 l 1
 16 0 l 1
 8.5 0 l 1
 1 0 l 1
EndSplineSet
EndChar

StartChar: two
Encoding: 8 50 32
Width: 457
VWidth: 0
Flags: W
HStem: 0 90.7754<115.667 421.711> 584.16 49.3496<225.761 396.859>
LayerCount: 2
Fore
SplineSet
89.9326171875 469.775390625 m 5
 91.8603515625 477.0546875 l 5
 93.7900390625 484.333984375 l 6
 115.383789062 565.830078125 216.379882812 633.51953125 333.85546875 633.509765625 c 4
 438.822265625 633.509765625 544.650390625 597.868164062 524.005859375 480.78515625 c 4
 508.21875 391.252929688 427.368164062 331.390625 383.880859375 298.303710938 c 6
 115.666992188 90.775390625 l 5
 442.288085938 90.6298828125 l 5
 451.9140625 90.6259765625 l 5
 461.595703125 90.62109375 l 5
 457.555664062 81.4658203125 l 5
 453.627929688 72.5625 l 5
 426.537109375 11.1728515625 l 5
 424.139648438 5.662109375 l 5
 421.7109375 0 l 5
 415.87109375 0 l 5
 410.030273438 0 l 5
 15 0 l 5
 7.5 0 l 5
 0 0 l 5
 1.322265625 7.5 l 5
 2.611328125 14.8095703125 l 5
 10.6904296875 60.626953125 l 5
 11.234375 63.712890625 l 5
 11.8017578125 66.9306640625 l 5
 14.6201171875 69.1044921875 l 5
 17.3603515625 71.216796875 l 5
 279.940429688 273.64453125 l 6
 316.08203125 302.072265625 360.025390625 333.49609375 379.875976562 358.504882812 c 4
 401.357421875 385.591796875 412.681640625 408.56640625 424.58203125 476.0546875 c 4
 439.7734375 562.208984375 376.81640625 584.16015625 310.703125 584.16015625 c 4
 244.625 584.16015625 180.932617188 554.983398438 161.737304688 477.434570312 c 6
 159.8046875 469.623046875 l 5
 157.870117188 461.810546875 l 5
 150.247070312 462.704101562 l 5
 142.624023438 463.59765625 l 5
 106.365234375 467.848632812 l 5
 97.0458984375 468.94140625 l 5
 89.9326171875 469.775390625 l 5
EndSplineSet
EndChar

StartChar: three
Encoding: 9 51 33
Width: 438
VWidth: 0
Flags: W
HStem: -16.0703 49.8398<106.018 261.233> 309.95 50.0693<217.441 300.916> 583.72 49.79<214.896 360.3>
VStem: 19.7666 76.6699<47.7942 123.979>
LayerCount: 2
Fore
SplineSet
23.380859375 134.1328125 m 1
 45.98828125 130.961914062 l 1
 99.7294921875 123.424804688 l 1
 96.4365234375 109.5390625 l 2
 80.861328125 43.873046875 136.17578125 33.7900390625 182.103515625 33.76953125 c 0
 285.369140625 33.76953125 328.559570312 118.017578125 339.731445312 181.375976562 c 0
 357.981445312 284.876953125 281.833984375 309.950195312 223.612304688 309.950195312 c 2
 208.612304688 309.950195312 l 1
 217.44140625 360.01953125 l 1
 232.44140625 360.01953125 l 2
 296.141601562 360.01953125 372.251953125 426.9453125 379.38671875 467.41015625 c 0
 396.688476562 565.532226562 344.293945312 583.719726562 289.405273438 583.719726562 c 0
 232.272460938 583.719726562 197.705078125 555.704101562 186.057617188 526.795898438 c 2
 180.104492188 512.01953125 l 1
 109.96875 529.376953125 l 1
 119.14453125 545.475585938 l 2
 156.538085938 611.076171875 237.8359375 633.509765625 297.28515625 633.509765625 c 0
 429.1640625 633.509765625 492.291992188 571.22265625 474.791992188 471.97265625 c 0
 464.189453125 411.84375 411.809570312 357.924804688 358.359375 332.922851562 c 1
 407.979492188 309.37890625 447.989257812 258.891601562 435.059570312 185.563476562 c 0
 403.735351562 7.9150390625 232.071289062 -16.0703125 181.74609375 -16.0703125 c 0
 177.018554688 -16.0703125 172.3828125 -15.970703125 167.841796875 -15.775390625 c 0
 63.232421875 -11.27734375 4.0205078125 46.06640625 19.7666015625 117.692382812 c 2
 23.380859375 134.1328125 l 1
EndSplineSet
EndChar

StartChar: four
Encoding: 10 52 34
Width: 474
VWidth: 0
Flags: W
HStem: 0 21G<279.06 374.932> 170.99 49.8594<109.664 309.21 412.555 482.17> 599.68 20G<443.857 482.876>
LayerCount: 2
Fore
SplineSet
364.029296875 481.889648438 m 1
 109.6640625 220.849609375 l 1
 318.000976562 220.849609375 l 1
 364.029296875 481.889648438 l 1
481.552734375 612.1796875 m 1
 480.255859375 604.8203125 l 1
 412.5546875 220.870117188 l 1
 475.96484375 220.870117188 l 1
 483.46484375 220.870117188 l 1
 490.96484375 220.870117188 l 1
 489.642578125 213.370117188 l 1
 488.3203125 205.870117188 l 1
 484.814453125 185.990234375 l 1
 483.4921875 178.490234375 l 1
 482.169921875 170.990234375 l 1
 474.669921875 170.990234375 l 1
 467.169921875 170.990234375 l 1
 403.759765625 170.990234375 l 1
 376.196289062 14.6708984375 l 1
 374.931640625 7.5 l 1
 373.609375 0 l 1
 366.109375 0 l 1
 358.609375 0 l 1
 294.059570312 0 l 1
 286.559570312 0 l 1
 279.059570312 0 l 1
 280.381835938 7.5 l 1
 281.646484375 14.6708984375 l 1
 309.209960938 170.990234375 l 1
 44.150390625 170.990234375 l 1
 36.650390625 170.990234375 l 1
 29.150390625 170.990234375 l 1
 30.4501953125 178.365234375 l 1
 31.7294921875 185.616210938 l 1
 35.07421875 204.5859375 l 1
 35.5302734375 207.170898438 l 1
 35.9912109375 209.788085938 l 1
 38.02734375 211.819335938 l 1
 40.2216796875 214.009765625 l 1
 441.1328125 614.063476562 l 1
 443.857421875 616.859375 l 1
 446.607421875 619.6796875 l 1
 450.216796875 619.6796875 l 1
 453.826171875 619.6796875 l 1
 467.875976562 619.6796875 l 1
 475.375976562 619.6796875 l 1
 482.875976562 619.6796875 l 1
 481.552734375 612.1796875 l 1
EndSplineSet
EndChar

StartChar: five
Encoding: 11 53 35
Width: 457
VWidth: 0
Flags: W
HStem: -16.0703 49.79<112.174 283.518> 373.22 50.0498<146.348 328.837> 525.04 94.6396<164.789 458.627>
LayerCount: 2
Fore
SplineSet
100.751953125 118.926757812 m 5
 99.9599609375 112.565429688 l 5
 99.1669921875 106.204101562 l 6
 92.4423828125 52.259765625 128.255859375 33.73046875 189.17578125 33.7197265625 c 4
 307.379882812 33.7197265625 352.375976562 100.75390625 373.986328125 223.311523438 c 4
 398.995117188 365.142578125 279.188476562 373.219726562 225.96875 373.219726562 c 4
 177.11328125 373.219726562 148.2734375 366.633789062 105.751953125 347.091796875 c 6
 93.3955078125 341.379882812 l 5
 81.5595703125 335.909179688 l 5
 83.7060546875 348.079101562 l 5
 85.8515625 360.25 l 5
 128.9921875 604.908203125 l 5
 130.2734375 612.1796875 l 5
 131.596679688 619.6796875 l 5
 139.096679688 619.6796875 l 5
 146.596679688 619.6796875 l 5
 479.787109375 619.6796875 l 5
 489.395507812 619.6796875 l 5
 499.004882812 619.6796875 l 5
 495.028320312 610.358398438 l 5
 491.05078125 601.037109375 l 5
 463.471679688 536.397460938 l 5
 461.049804688 530.71875 l 5
 458.626953125 525.040039062 l 5
 452.772460938 525.040039062 l 5
 446.918945312 525.040039062 l 5
 164.7890625 525.040039062 l 5
 144.9453125 412.50390625 l 5
 179.794921875 421.873046875 208.728515625 423.26953125 244.774414062 423.26953125 c 4
 310.923828125 423.26953125 505.592773438 402.676757812 472.998046875 217.826171875 c 4
 442.122070312 42.71875 286.411132812 -16.0703125 180.396484375 -16.0703125 c 4
 80.1875 -16.0703125 14.4140625 35.732421875 20.927734375 109.563476562 c 6
 21.7333984375 118.690429688 l 5
 22.5380859375 127.817382812 l 5
 31.46484375 126.802734375 l 5
 40.384765625 125.788085938 l 5
 88.33984375 120.337890625 l 5
 94.546875 119.631835938 l 5
 100.751953125 118.926757812 l 5
EndSplineSet
EndChar

StartChar: six
Encoding: 12 54 36
Width: 435
VWidth: 0
Flags: W
HStem: -16.0703 50.3203<167.316 291.024> 362.9 49.4795<220.694 339.581>
LayerCount: 2
Fore
SplineSet
284.80859375 362.900390625 m 4
 206.540039062 362.900390625 151.765625 278.4375 137.686523438 198.588867188 c 4
 120.01171875 98.3525390625 150.890625 34.25 231.80859375 34.25 c 4
 301.653320312 34.25 349.524414062 113.791015625 364.223632812 197.153320312 c 4
 377.922851562 274.846679688 365.736328125 362.900390625 284.80859375 362.900390625 c 4
478.15234375 592.684570312 m 6
 368.481445312 562.198242188 239.135742188 514.470703125 170.098632812 369.033203125 c 5
 201.453125 392.052734375 244.409179688 412.379882812 296.36328125 412.379882812 c 4
 438.411132812 412.379882812 477.266601562 302.375976562 460.823242188 209.061523438 c 4
 431.081054688 40.384765625 303.524414062 -16.0703125 215.755859375 -16.0703125 c 4
 114.8125 -16.0703125 8.1630859375 46.2978515625 45.76171875 259.52734375 c 4
 84.7421875 480.59765625 309.22265625 598.502929688 451.608398438 628.338867188 c 4
 457.98046875 629.727539062 467.893554688 631.870117188 474.397460938 633.1953125 c 6
 481.712890625 634.685546875 l 5
 489.028320312 636.176757812 l 5
 489.565429688 629.188476562 l 5
 490.140625 622.461914062 l 6
 490.701171875 616.510742188 491.341796875 609.916992188 491.341796875 609.916992188 c 5
 491.969726562 603.446289062 l 5
 492.627929688 596.655273438 l 5
 485.310546875 594.647460938 l 5
 478.15234375 592.684570312 l 6
EndSplineSet
EndChar

StartChar: seven
Encoding: 13 55 37
Width: 396
VWidth: 0
Flags: W
HStem: 525.02 94.6504<129.937 402.308>
LayerCount: 2
Fore
SplineSet
512.133789062 619.669921875 m 5
 505.948242188 609.49609375 l 5
 499.944335938 599.624023438 l 5
 131.1171875 -6.9775390625 l 5
 126.947265625 -13.94921875 l 5
 122.732421875 -21.115234375 l 5
 116.228515625 -17.9306640625 l 5
 109.756835938 -14.759765625 l 5
 109.756835938 -14.759765625 97.6298828125 -9.158203125 93.19140625 -7.2060546875 c 6
 86.900390625 -4.4404296875 l 5
 80.4609375 -1.609375 l 5
 84.58203125 5.1328125 l 5
 88.533203125 11.5986328125 l 5
 402.307617188 525.01953125 l 5
 111.205078125 525.01953125 l 5
 101.889648438 525.01953125 l 5
 92.5751953125 525.01953125 l 5
 96.1669921875 534.120117188 l 5
 99.759765625 543.219726562 l 5
 125.280273438 607.872070312 l 5
 127.608398438 613.770507812 l 5
 129.936523438 619.669921875 l 5
 135.975585938 619.669921875 l 5
 142.014648438 619.669921875 l 5
 490.567382812 619.669921875 l 5
 500.831054688 619.669921875 l 5
 512.133789062 619.669921875 l 5
EndSplineSet
EndChar

StartChar: eight
Encoding: 14 56 38
Width: 407
VWidth: 0
Flags: W
HStem: -16.0703 49.8008<141.785 254> 583.81 49.71<223.101 336.625>
LayerCount: 2
Fore
SplineSet
290.827148438 633.51953125 m 4
 395.94140625 633.51953125 454.873046875 570.038085938 442.0546875 497.338867188 c 4
 431.051757812 434.939453125 388.96875 400.682617188 291.559570312 335.918945312 c 5
 372.399414062 265.282226562 409.224609375 221.82421875 395.5703125 144.444335938 c 4
 380.8203125 60.7919921875 292.1796875 -16.0703125 175.846679688 -16.0703125 c 4
 54.6142578125 -16.0703125 4.7646484375 64.619140625 17.7685546875 138.368164062 c 4
 31.5283203125 216.408203125 84.921875 260.555664062 165.99609375 314.997070312 c 5
 82.1259765625 391.931640625 74.9697265625 425.176757812 84.4765625 479.090820312 c 4
 97.841796875 554.888671875 170.58203125 633.51953125 290.827148438 633.51953125 c 4
356.248046875 486.41015625 m 4
 365.610351562 539.5078125 336.537109375 583.809570312 282.912109375 583.809570312 c 4
 226.733398438 583.809570312 189.137695312 536.48828125 182.599609375 499.41015625 c 4
 174.912109375 455.814453125 178.653320312 435.487304688 255.0625 355.55078125 c 5
 329.739257812 414.564453125 348.157226562 440.529296875 356.248046875 486.41015625 c 4
202.49609375 296.78515625 m 5
 153.913085938 258.130859375 129.473632812 235.208984375 114.505859375 150.3203125 c 4
 100.155273438 68.9384765625 153.846679688 33.73046875 191.6875 33.73046875 c 4
 244.40234375 33.73046875 288.502929688 73.85546875 296.840820312 121.139648438 c 4
 307.416015625 181.11328125 288.75390625 207.16015625 202.49609375 296.78515625 c 5
EndSplineSet
EndChar

StartChar: nine
Encoding: 15 57 39
Width: 447
VWidth: 0
Flags: W
HStem: 208.4 49.2695<177.992 297.434> 583.24 50.2793<226.95 349.245>
LayerCount: 2
Fore
SplineSet
284.541015625 583.240234375 m 0
 215.395507812 583.240234375 167.951171875 504.5234375 153.376953125 421.866210938 c 0
 139.793945312 344.836914062 151.911132812 257.669921875 232.044921875 257.669921875 c 0
 309.563476562 257.669921875 363.840820312 341.298828125 377.794921875 420.44140625 c 0
 395.3125 519.78515625 364.69140625 583.240234375 284.541015625 583.240234375 c 0
220.517578125 208.400390625 m 0
 79.642578125 208.400390625 56.990234375 317.536132812 73.2978515625 410.022460938 c 4
 102.811523438 577.404296875 229.487304688 633.51953125 316.5078125 633.51953125 c 4
 416.3203125 633.51953125 507.6328125 578.03125 469.1640625 359.920898438 c 0
 432.794921875 153.662109375 242.536132812 50.55078125 144.064453125 16.490234375 c 0
 106.2421875 3.4267578125 47.4052734375 -15.20703125 47.39453125 -15.2109375 c 2
 39.4365234375 -17.84375 l 1
 31.4521484375 -20.4853515625 l 1
 30.623046875 -12.8193359375 l 1
 29.7529296875 -5.4365234375 l 1
 29.7529296875 -5.4365234375 28.2939453125 5.9892578125 27.521484375 12.3984375 c 2
 26.72265625 19.033203125 l 1
 25.8837890625 25.9921875 l 1
 33.4287109375 28.00390625 l 1
 40.82421875 29.9755859375 l 2
 45.896484375 31.3271484375 51.779296875 32.9375 54.7294921875 33.732421875 c 2
 54.7294921875 33.732421875 169.838867188 63.67578125 248.572265625 125.442382812 c 0
 279.909179688 150.463867188 313.4921875 189.73828125 342.471679688 248.946289062 c 1
 310.494140625 226.403320312 270.202148438 208.400390625 220.517578125 208.400390625 c 0
EndSplineSet
EndChar

StartChar: colon
Encoding: 16 58 40
Width: 185
VWidth: 0
Flags: W
HStem: -16.0596 138.119<37.4876 119.323> 297.82 138.12<92.8323 174.668>
VStem: 9.3457 193.464
LayerCount: 2
Fore
SplineSet
145.927734375 435.940429688 m 4
 184.0703125 435.940429688 209.536132812 405.0234375 202.809570312 366.879882812 c 4
 196.084960938 328.73828125 159.716796875 297.8203125 121.573242188 297.8203125 c 4
 83.4287109375 297.8203125 57.966796875 328.748046875 64.6904296875 366.879882812 c 4
 71.416015625 405.021484375 107.784179688 435.940429688 145.927734375 435.940429688 c 4
66.2275390625 -16.0595703125 m 4
 28.0859375 -16.0595703125 2.619140625 14.8564453125 9.345703125 53 c 4
 16.0703125 91.1416015625 52.4384765625 122.059570312 90.58203125 122.059570312 c 4
 128.7265625 122.059570312 154.188476562 91.1318359375 147.46484375 53 c 4
 140.739257812 14.8583984375 104.37109375 -16.0595703125 66.2275390625 -16.0595703125 c 4
EndSplineSet
EndChar

StartChar: semicolon
Encoding: 17 59 41
Width: 185
VWidth: 0
Flags: W
HStem: 305.151 138.08<94.1185 175.921>
VStem: 8.36621 195.694
LayerCount: 2
Fore
SplineSet
8.3662109375 -31.443359375 m 1
 17.1279296875 -28.1591796875 l 1
 24.6826171875 -25.3271484375 l 2
 31.3701171875 -22.8212890625 42.259765625 -18.693359375 43.6962890625 -18.142578125 c 0
 44.591796875 -17.7841796875 47.8173828125 -16.3046875 48.447265625 -16 c 1
 20.15625 -8.390625 3.0654296875 17.384765625 8.4736328125 48.05859375 c 0
 14.9267578125 84.654296875 51.0849609375 114.340820312 89.2109375 114.340820312 c 0
 127.063476562 114.340820312 153.266601562 86.0166015625 147.009765625 50.533203125 c 0
 143.758789062 32.0927734375 140.799804688 19.33203125 130.135742188 -0.234375 c 0
 112.154296875 -33.130859375 75.39453125 -48.2314453125 40.9130859375 -64.5517578125 c 2
 33.6044921875 -68.28515625 l 1
 26.23046875 -72.052734375 l 1
 8.3662109375 -31.443359375 l 1
147.193359375 443.231445312 m 0
 185.314453125 443.231445312 210.784179688 412.326171875 204.060546875 374.19140625 c 0
 197.337890625 336.069335938 160.981445312 305.151367188 122.846679688 305.151367188 c 0
 84.7236328125 305.151367188 59.2578125 336.065429688 65.98046875 374.19140625 c 0
 72.701171875 412.311523438 109.057617188 443.231445312 147.193359375 443.231445312 c 0
EndSplineSet
EndChar

StartChar: question
Encoding: 18 63 42
Width: 423
VWidth: 0
Flags: W
HStem: -16.0703 100.09<144.752 216.161> 574.77 58.7402<211.175 352.506>
VStem: 130.411 100.09<-2.24877 70.2011>
LayerCount: 2
Fore
SplineSet
96.263671875 493.09375 m 0
 153.134765625 594.4921875 227.182617188 633.509765625 294.82421875 633.509765625 c 0
 413.515625 633.509765625 477.149414062 565.422851562 462.35546875 481.51953125 c 0
 446.787109375 393.229492188 397.541015625 355.633789062 330.154296875 291.54296875 c 0
 266.38671875 230.797851562 230.689453125 177.90625 222.180664062 129.650390625 c 2
 220.857421875 122.150390625 l 1
 219.53515625 114.650390625 l 1
 212.03515625 114.650390625 l 1
 204.53515625 114.650390625 l 1
 184.74609375 114.650390625 l 1
 177.24609375 114.650390625 l 1
 169.74609375 114.650390625 l 1
 171.068359375 122.150390625 l 1
 172.391601562 129.650390625 l 2
 182.236328125 185.483398438 214.341796875 244.780273438 245.77734375 282.396484375 c 0
 313.077148438 362.8203125 329.46484375 372.48046875 350.2578125 420.842773438 c 0
 368.526367188 463.297851562 375.627929688 499.810546875 368.6484375 527.659179688 c 0
 361.309570312 556.638671875 334.30078125 574.76953125 284.637695312 574.76953125 c 0
 235.698242188 574.76953125 178.875976562 550.4296875 123.247070312 455.838867188 c 2
 119.352539062 449.217773438 l 1
 115.459960938 442.59765625 l 1
 109.145507812 445.013671875 l 1
 102.83203125 447.4296875 l 1
 102.83203125 447.4296875 95.4248046875 450.264648438 90.220703125 452.231445312 c 2
 83.650390625 454.71484375 l 1
 77.0791015625 457.198242188 l 1
 80.7412109375 464.227539062 l 1
 84.404296875 471.2578125 l 2
 87.2421875 476.705078125 92.0556640625 485.641601562 96.263671875 493.09375 c 0
171.635742188 -16.0703125 m 0
 143.993164062 -16.0703125 125.537109375 6.3349609375 130.411132812 33.98046875 c 0
 135.284179688 61.615234375 161.640625 84.01953125 189.284179688 84.01953125 c 0
 216.922851562 84.01953125 235.387695312 61.61328125 230.500976562 33.98046875 c 0
 225.627929688 6.3408203125 199.274414062 -16.0703125 171.635742188 -16.0703125 c 0
EndSplineSet
EndChar

StartChar: a
Encoding: 45 97 43
Width: 419
VWidth: 0
Flags: W
HStem: 0 21G<252.189 348.024> 196.356 47.1201<167.775 287.085>
LayerCount: 2
Fore
SplineSet
80.5048828125 349.834960938 m 1
 85.30859375 357.03515625 l 1
 89.859375 363.856445312 l 2
 135.228515625 431.8515625 251.673828125 455.524414062 344.296875 413.8203125 c 0
 413.58984375 382.635742188 404.989257812 330.31640625 404.352539062 327.249023438 c 2
 365.229492188 105.374023438 l 1
 349.25 14.236328125 l 1
 348.024414062 7.244140625 l 1
 346.754882812 0 l 1
 339.247070312 0 l 1
 331.740234375 0 l 1
 267.189453125 0 l 1
 259.689453125 0 l 1
 252.189453125 0 l 1
 253.51171875 7.5 l 1
 254.833984375 15 l 2
 255.942382812 21.2822265625 257.337890625 29.74609375 258.202148438 34.6484375 c 1
 208.506835938 -7.31640625 168.923828125 -15.830078125 124.678710938 -15.830078125 c 0
 100.764648438 -15.830078125 80.064453125 -11.197265625 63.3798828125 -2.8193359375 c 0
 8.9375 22.5 -2.2568359375 83.8310546875 36.57421875 141.143554688 c 0
 85.826171875 213.76171875 189.79296875 241.017578125 294.951171875 243.4765625 c 1
 305.736328125 304.643554688 l 2
 310.735351562 332.99609375 308.844726562 358.490234375 284.185546875 372.689453125 c 0
 282.325195312 373.760742188 279.704101562 375.078125 276.553710938 376.41015625 c 0
 248.166015625 388.416015625 191.369140625 398.712890625 153.408203125 338.065429688 c 2
 149.525390625 331.86328125 l 1
 145.62109375 325.625976562 l 1
 139.403320312 327.9375 l 1
 133.060546875 330.294921875 l 1
 94.8642578125 344.49609375 l 1
 87.7890625 347.126953125 l 1
 80.5048828125 349.834960938 l 1
167.759765625 175.120117188 m 0
 119.66015625 156.4765625 105.19921875 98.685546875 106.973632812 62.078125 c 0
 108.34375 33.115234375 117.825195312 21.6962890625 151.07421875 25.404296875 c 0
 256.920898438 37.208984375 279.736328125 148.724609375 287.084960938 196.356445312 c 1
 259.3984375 196.443359375 219.146484375 195.037109375 167.759765625 175.120117188 c 0
EndSplineSet
EndChar

StartChar: b
Encoding: 46 98 44
Width: 375
VWidth: 0
Flags: W
HStem: -16.0703 65.1006<136.209 221.569> 0 21G<-1 94.793> 367.05 66.71<197.907 277.193> 599.68 20G<106.943 202.737>
LayerCount: 2
Fore
SplineSet
179.375976562 49.0302734375 m 0xb0
 222.721679688 49.0302734375 268.2421875 114.909179688 283.685546875 202.4921875 c 0
 302.62109375 309.8828125 285.0546875 367.049804688 238.811523438 367.049804688 c 0
 212.251953125 367.049804688 178.235351562 349.524414062 149.703125 318.856445312 c 1
 112.408203125 107.346679688 l 1
 127.78125 72.8056640625 150.969726562 49.0302734375 179.375976562 49.0302734375 c 0xb0
200.091796875 604.6796875 m 1
 162.000976562 388.653320312 l 1
 197.331054688 415.442382812 236.31640625 434.05078125 277.467773438 433.759765625 c 0
 355.076171875 433.178710938 405.98828125 360.624023438 378.079101562 202.397460938 c 0
 360.146484375 100.701171875 314.155273438 -16.0703125 192.436523438 -16.0703125 c 0xb0
 146.647460938 -16.0703125 116.671875 5.4345703125 98.509765625 28.5791015625 c 1
 96.115234375 15 l 1
 94.79296875 7.5 l 1
 93.470703125 0 l 1
 85.970703125 0 l 1
 78.470703125 0 l 1
 14 0 l 1
 6.5 0 l 1
 -1 0 l 1x70
 0.322265625 7.5 l 1
 1.6123046875 14.81640625 l 1
 105.62109375 604.6796875 l 1
 106.943359375 612.1796875 l 1
 108.266601562 619.6796875 l 1
 115.766601562 619.6796875 l 1
 123.266601562 619.6796875 l 1
 187.737304688 619.6796875 l 1
 195.237304688 619.6796875 l 1
 202.737304688 619.6796875 l 1
 201.4140625 612.1796875 l 1
 200.091796875 604.6796875 l 1
EndSplineSet
EndChar

StartChar: c
Encoding: 47 99 45
Width: 452
VWidth: 0
Flags: W
HStem: -16.0703 49.2803<174.096 316.007> 387.08 48.8604<230.074 366.884>
LayerCount: 2
Fore
SplineSet
437.537109375 152.830078125 m 1
 435.23046875 144.564453125 l 1
 432.80078125 135.854492188 l 2
 409.255859375 53.01171875 330.962890625 -16.0703125 225.676757812 -16.0703125 c 0
 98.0595703125 -16.0703125 16.2001953125 86.2041015625 39.345703125 217.471679688 c 0
 73.1572265625 409.2265625 247.20703125 435.940429688 310.30859375 435.940429688 c 0
 363.3515625 435.940429688 436.274414062 421.520507812 461.751953125 358.405273438 c 2
 464.381835938 351.890625 l 1
 467.012695312 345.375976562 l 1
 459.819335938 341.624023438 l 1
 452.627929688 337.873046875 l 1
 414.149414062 317.802734375 l 1
 407.254882812 314.206054688 l 1
 400.359375 310.610351562 l 1
 397.606445312 316.729492188 l 1
 394.854492188 322.848632812 l 2
 373.270507812 370.83203125 348.895507812 387.080078125 303.59375 387.080078125 c 0
 201.009765625 387.080078125 148.989257812 285.595703125 136.958984375 217.369140625 c 0
 121.07421875 127.282226562 144.413085938 33.2099609375 233.845703125 33.2099609375 c 0
 297.182617188 33.2099609375 328.962890625 59.533203125 351.60546875 88.0556640625 c 0
 359.305664062 97.666015625 374.586914062 122.950195312 382.364257812 141.40234375 c 2
 384.7734375 147.116210938 l 1
 387.181640625 152.830078125 l 1
 393.065429688 152.830078125 l 1
 398.948242188 152.830078125 l 1
 421.841796875 152.830078125 l 1
 429.227539062 152.830078125 l 1
 437.537109375 152.830078125 l 1
EndSplineSet
EndChar

StartChar: d
Encoding: 48 100 46
Width: 380
VWidth: 0
Flags: W
HStem: -16.0703 65.1104<83.7464 223.002> 0 21G<249.51 345.303> 367.06 66.6992<189.451 284.029> 599.68 20G<357.463 453.247>
LayerCount: 2
Fore
SplineSet
130.70703125 202.501953125 m 0xb0
 115.262695312 114.91796875 137.552734375 49.0400390625 180.897460938 49.0400390625 c 0
 209.713867188 49.0400390625 242.618164062 75.0078125 268.442382812 107.373046875 c 1
 305.623046875 318.236328125 l 1
 286.061523438 352.115234375 260.391601562 367.059570312 233.612304688 367.059570312 c 0
 187.365234375 367.059570312 149.643554688 309.896484375 130.70703125 202.501953125 c 0xb0
358.786132812 619.6796875 m 1
 366.286132812 619.6796875 l 1
 373.786132812 619.6796875 l 1
 438.247070312 619.6796875 l 1
 445.747070312 619.6796875 l 1
 453.247070312 619.6796875 l 1
 451.923828125 612.1796875 l 1
 450.6015625 604.6796875 l 1
 346.592773438 14.81640625 l 1
 345.302734375 7.5 l 1
 343.98046875 0 l 1
 336.48046875 0 l 1
 328.98046875 0 l 1
 264.509765625 0 l 1
 257.009765625 0 l 1
 249.509765625 0 l 1x70
 250.83203125 7.5 l 1
 252.154296875 15 l 2
 252.891601562 19.1787109375 253.959960938 25.3544921875 254.470703125 28.2509765625 c 1
 227.50390625 4.3349609375 189.993164062 -16.0703125 144.786132812 -16.0703125 c 0
 23.1533203125 -16.0703125 18.2705078125 100.780273438 36.1884765625 202.397460938 c 0
 64.08984375 360.635742188 140.694335938 433.178710938 218.46875 433.758789062 c 0
 260.125976562 434.131835938 294.044921875 413.407226562 318.0390625 388.595703125 c 1
 356.140625 604.6796875 l 1
 357.462890625 612.1796875 l 1
 358.786132812 619.6796875 l 1
EndSplineSet
EndChar

StartChar: e
Encoding: 49 101 47
Width: 447
VWidth: 0
Flags: W
HStem: -16.0703 48.9443<156.49 274.38> 229.928 50.9023<142.915 337.898> 399 36.9502<208.806 317.417>
LayerCount: 2
Fore
SplineSet
142.915039062 280.830078125 m 1
 336.438476562 280.830078125 l 1
 343.029296875 350.247070312 331.31640625 399 266 399 c 4
 202.923828125 399 160.703125 343.169921875 142.915039062 280.830078125 c 1
362.728515625 179.875 m 1
 368.873046875 179.875 l 1
 375.056640625 179.875 l 1
 399.526367188 179.875 l 1
 407.814453125 179.875 l 1
 416.129882812 179.875 l 1
 413.81640625 171.603515625 l 1
 411.583007812 163.62109375 l 2
 410.02734375 158.059570312 408.280273438 152.8515625 406.46484375 147.759765625 c 0
 373.6328125 57.443359375 299.950195312 -16.0703125 201.856445312 -16.0703125 c 0
 143.484375 -16.0703125 90.88671875 -5.701171875 55.4326171875 58.0908203125 c 0
 13.63671875 133.4296875 36.8046875 251.943359375 75.21484375 313.141601562 c 0
 134.63671875 407.786132812 214.904296875 435.950195312 269.540039062 435.950195312 c 0
 343.265625 435.950195312 453.760742188 405.784179688 425.263671875 244.16796875 c 2
 424.028320312 237.1640625 l 1
 422.751953125 229.927734375 l 1
 415.251953125 229.927734375 l 1
 407.751953125 229.927734375 l 1
 132.4296875 229.927734375 l 1
 115.6328125 133.879882812 126.3203125 32.8740234375 211.346679688 32.8740234375 c 0
 268.989257812 32.8740234375 325.44140625 89.78515625 352.616210938 153.389648438 c 0
 352.842773438 153.92578125 356.080078125 162.241210938 358.2421875 167.975585938 c 2
 360.45703125 173.850585938 l 1
 362.728515625 179.875 l 1
EndSplineSet
EndChar

StartChar: f
Encoding: 50 102 48
Width: 287
VWidth: 0
Flags: W
HStem: 0 21G<65.9727 161.702> 383.54 49.8701<73.4219 133.512 236.802 310.818> 583.4 50.1191<267.584 346.161>
LayerCount: 2
Fore
SplineSet
370.037109375 530.03515625 m 1
 366.743164062 534.908203125 l 1
 363.450195312 539.780273438 l 2
 338.046875 577.368164062 326.244140625 583.400390625 300.278320312 583.400390625 c 0
 270.620117188 583.400390625 257.94140625 553.299804688 247.515625 494.169921875 c 2
 236.801757812 433.41015625 l 1
 304.611328125 433.41015625 l 1
 312.111328125 433.41015625 l 1
 319.611328125 433.41015625 l 1
 318.2890625 425.91015625 l 1
 316.966796875 418.41015625 l 1
 316.100585938 413.5 l 1
 313.458984375 398.51953125 l 1
 310.818359375 383.540039062 l 1
 303.318359375 383.540039062 l 1
 295.818359375 383.540039062 l 1
 228.008789062 383.540039062 l 1
 162.973632812 14.7119140625 l 1
 161.702148438 7.5 l 1
 160.379882812 0 l 1
 152.879882812 0 l 1
 145.379882812 0 l 1
 80.9697265625 0 l 1
 73.4716796875 0 l 1
 65.97265625 0 l 1
 67.2939453125 7.498046875 l 1
 68.5634765625 14.708984375 l 1
 133.51171875 383.540039062 l 1
 79.62890625 383.540039062 l 1
 72.12890625 383.540039062 l 1
 64.62890625 383.540039062 l 1
 67.26953125 398.51953125 l 1
 69.9111328125 413.5 l 1
 70.77734375 418.41015625 l 1
 72.099609375 425.91015625 l 1
 73.421875 433.41015625 l 1
 80.921875 433.41015625 l 1
 88.421875 433.41015625 l 1
 142.301757812 433.41015625 l 1
 153.015625 494.169921875 l 2
 168.25390625 580.59375 217.712890625 633.51953125 306.446289062 633.51953125 c 0
 377.705078125 633.51953125 415.611328125 606.225585938 428.193359375 578.108398438 c 2
 431.067382812 571.68359375 l 1
 433.94140625 565.258789062 l 1
 426.783203125 561.313476562 l 1
 419.625 557.3671875 l 1
 382.141601562 536.70703125 l 1
 376.08984375 533.37109375 l 1
 370.037109375 530.03515625 l 1
EndSplineSet
EndChar

StartChar: g
Encoding: 51 103 49
Width: 441
VWidth: 0
Flags: W
HStem: -200 92.5596<56.5202 269.932> 17.8877 79.5605<92.9119 262.049 262.13 349.795> 121.81 49.1309<177.578 279.681> 387 48.9502<205.71 298.852>
LayerCount: 2
Fore
SplineSet
72.9677734375 272.322265625 m 0
 91.54296875 377.6640625 176.788085938 435.950195312 260.55078125 435.950195312 c 0
 286.967773438 435.950195312 322.383789062 427.443359375 349.46875 412.447265625 c 1
 387.389648438 447.95703125 422.9921875 467.500976562 460.151367188 464.934570312 c 2
 467.263671875 464.443359375 l 1
 474.375976562 463.953125 l 1
 472.891601562 456.740234375 l 1
 471.407226562 449.528320312 l 1
 463.046875 409.029296875 l 1
 461.681640625 402.439453125 l 1
 460.278320312 395.672851562 l 1
 453.3046875 395.337890625 l 1
 446.333984375 395.001953125 l 2
 423.829101562 393.918945312 403.453125 389.844726562 387.458984375 382.400390625 c 1
 401.283203125 364.864257812 418.109375 332.272460938 409.137695312 281.391601562 c 0
 387.051757812 156.135742188 300.383789062 121.809570312 216.8984375 121.809570312 c 0
 179.546875 121.809570312 143.561523438 128.8671875 121.666015625 139.403320312 c 1
 101.12890625 120.72265625 93.1591796875 108.560546875 92.4638671875 104.7265625 c 2
 92.4638671875 104.7265625 90.025390625 97.4482421875 131.302734375 97.4482421875 c 2
 269.502929688 97.4482421875 l 2
 362.9921875 97.4482421875 425.063476562 56.166015625 410.760742188 -24.9501953125 c 0
 390.262695312 -141.198242188 259.655273438 -200 167.584960938 -200 c 0
 53.8701171875 -200 -25.26171875 -148.938476562 -11.6708984375 -71.8603515625 c 0
 -6.541015625 -42.7666015625 13.6025390625 -16.787109375 46.9853515625 7.5 c 1
 37.0517578125 11.6572265625 31.9296875 15.1220703125 26.537109375 20.833984375 c 0
 -10.8388671875 60.4140625 47.26953125 125.41015625 85.513671875 160.580078125 c 1
 76.1953125 178.771484375 63.017578125 215.888671875 72.9677734375 272.322265625 c 0
224.83203125 170.940429688 m 0
 286.978515625 170.940429688 307.21484375 223.869140625 316.370117188 275.793945312 c 0
 327.8359375 340.821289062 297.344726562 387 255.208984375 387 c 0
 212.595703125 387 178.349609375 349.060546875 167.439453125 287.1875 c 0
 152.075195312 200.053710938 181.59765625 170.940429688 224.83203125 170.940429688 c 0
102.0859375 17.8876953125 m 1
 61.240234375 -13.4287109375 42.318359375 -42.830078125 40.4716796875 -53.2998046875 c 0
 35.2373046875 -82.9892578125 66.8779296875 -107.440429688 185.795898438 -107.440429688 c 0
 271.719726562 -107.440429688 352.055664062 -77.3447265625 359.952148438 -32.599609375 c 0
 366.532226562 4.7197265625 326.235351562 17.41015625 262.129882812 17.41015625 c 2
 262.129882812 17.41015625 151.201171875 17.8515625 102.0859375 17.8876953125 c 1
EndSplineSet
EndChar

StartChar: h
Encoding: 52 104 50
Width: 453
VWidth: 0
Flags: W
HStem: 0 21G<3 98.7822 304.145 399.97> 381.66 52.1201<204.806 343.657> 599.68 20G<110.943 206.727>
LayerCount: 2
Fore
SplineSet
398.693359375 0 m 1
 391.19140625 0 l 1
 383.689453125 0 l 1
 319.139648438 0 l 1
 311.641601562 0 l 1
 304.14453125 0 l 1
 305.463867188 7.498046875 l 1
 306.732421875 14.7060546875 l 1
 353.948242188 282.990234375 l 2
 364.62109375 343.516601562 352.712890625 381.66015625 282.7265625 381.66015625 c 0
 220.35546875 381.66015625 157.1015625 338.247070312 148.764648438 290.961914062 c 2
 100.053710938 14.7109375 l 1
 98.7822265625 7.5 l 1
 97.4599609375 0 l 1
 89.9599609375 0 l 1
 82.4599609375 0 l 1
 18 0 l 1
 10.5 0 l 1
 3 0 l 1
 4.322265625 7.5 l 1
 5.6123046875 14.81640625 l 1
 109.62109375 604.6796875 l 1
 110.943359375 612.1796875 l 1
 112.266601562 619.6796875 l 1
 119.766601562 619.6796875 l 1
 127.266601562 619.6796875 l 1
 191.7265625 619.6796875 l 1
 199.2265625 619.6796875 l 1
 206.7265625 619.6796875 l 1
 205.403320312 612.1796875 l 1
 204.081054688 604.6796875 l 1
 167.463867188 397.014648438 l 1
 215.888671875 428.471679688 271.827148438 433.780273438 296.307617188 433.780273438 c 0
 369.967773438 433.780273438 468.734375 397.700195312 450.180664062 292.4765625 c 2
 401.204101562 14.259765625 l 1
 399.969726562 7.2509765625 l 1
 398.693359375 0 l 1
EndSplineSet
EndChar

StartChar: i
Encoding: 53 105 51
Width: 169
VWidth: 0
Flags: W
HStem: 0 21G<-1 96.7031> 413.56 20G<74.126 171.829> 521.36 112.159<111.434 186.504>
VStem: -1 206.049
LayerCount: 2
Fore
SplineSet
-1 0 m 1
 0.322265625 7.5 l 1
 1.5986328125 14.736328125 l 1
 72.8037109375 418.559570312 l 1
 74.1259765625 426.059570312 l 1
 75.4482421875 433.559570312 l 1
 82.9482421875 433.559570312 l 1
 90.4482421875 433.559570312 l 1
 156.829101562 433.559570312 l 1
 164.329101562 433.559570312 l 1
 171.829101562 433.559570312 l 1
 170.506835938 426.059570312 l 1
 169.184570312 418.559570312 l 1
 97.9794921875 14.736328125 l 1
 96.703125 7.5 l 1
 95.380859375 0 l 1
 87.880859375 0 l 1
 80.380859375 0 l 1
 14 0 l 1
 6.5 0 l 1
 -1 0 l 1
205.048828125 577.440429688 m 0
 199.587890625 546.469726562 170.053710938 521.360351562 139.080078125 521.360351562 c 0
 108.111328125 521.360351562 87.4267578125 546.465820312 92.888671875 577.440429688 c 0
 98.349609375 608.41015625 127.884765625 633.51953125 158.857421875 633.51953125 c 0
 189.826171875 633.51953125 210.510742188 608.4140625 205.048828125 577.440429688 c 0
EndSplineSet
EndChar

StartChar: j
Encoding: 54 106 52
Width: 285
VWidth: 0
Flags: W
HStem: -200 50.4502<-4.1005 71.0226> 523.55 109.97<216.191 290.747>
LayerCount: 2
Fore
SplineSet
263.177734375 633.51953125 m 0
 293.516601562 633.51953125 313.8125 608.881835938 308.462890625 578.540039062 c 0
 303.11328125 548.205078125 274.133789062 523.549804688 243.787109375 523.549804688 c 0
 213.3671875 523.549804688 193.157226562 548.223632812 198.502929688 578.540039062 c 0
 203.84765625 608.853515625 232.748046875 633.51953125 263.177734375 633.51953125 c 0
273.271484375 423.879882812 m 1
 187.236328125 -64.0498046875 l 2
 172.139648438 -149.666015625 127.659179688 -200 27.6650390625 -200 c 0
 -41.591796875 -200 -96.1826171875 -167.520507812 -92.7626953125 -114.4765625 c 2
 -92.337890625 -107.900390625 l 1
 -91.9140625 -101.32421875 l 1
 -85.20703125 -99.775390625 l 1
 -78.5009765625 -98.2265625 l 1
 -32.2568359375 -87.546875 l 1
 -25.0029296875 -85.87109375 l 1
 -17.7470703125 -84.1953125 l 1
 -16.9609375 -91.0693359375 l 1
 -16.17578125 -97.943359375 l 2
 -12.859375 -126.939453125 8.6396484375 -149.549804688 36.990234375 -149.549804688 c 0
 68.3837890625 -149.549804688 83.5458984375 -115.03515625 92.537109375 -64.044921875 c 2
 178.7421875 423.884765625 l 1
 180.067382812 431.3828125 l 1
 181.391601562 438.879882812 l 1
 188.889648438 438.879882812 l 1
 196.38671875 438.879882812 l 1
 260.916992188 438.879882812 l 1
 268.416992188 438.879882812 l 1
 275.916992188 438.879882812 l 1
 274.59375 431.379882812 l 1
 273.271484375 423.879882812 l 1
EndSplineSet
EndChar

StartChar: k
Encoding: 55 107 53
Width: 396
VWidth: 0
Flags: W
HStem: 0 21G<1.0918 96.8721 268.323 395.377> 401.04 20G<350.761 421.65> 599.68 20G<108.942 204.816>
LayerCount: 2
Fore
SplineSet
405.422851562 408.48828125 m 1
 389.861328125 396.452148438 l 1
 207.72265625 255.578125 l 1
 378.090820312 23.54296875 l 1
 386.547851562 12.0234375 l 1
 395.376953125 0 l 1
 378.795898438 0 l 1
 362.58984375 0 l 1
 276.959960938 0 l 1
 273.53515625 0 l 1
 270.109375 0 l 1
 268.323242188 2.5888671875 l 1
 266.537109375 5.1767578125 l 1
 131.0703125 201.44921875 l 1
 98.1943359375 15 l 1
 96.8720703125 7.5 l 1
 95.5498046875 0 l 1
 88.0498046875 0 l 1
 80.5498046875 0 l 1
 16.08984375 0 l 1
 8.5908203125 0 l 1
 1.091796875 0 l 1
 2.4130859375 7.4990234375 l 1
 3.7021484375 14.814453125 l 1
 107.62109375 604.677734375 l 1
 108.942382812 612.178710938 l 1
 110.264648438 619.6796875 l 1
 117.765625 619.6796875 l 1
 125.266601562 619.6796875 l 1
 189.81640625 619.6796875 l 1
 197.31640625 619.6796875 l 1
 204.81640625 619.6796875 l 1
 203.493164062 612.1796875 l 1
 202.170898438 604.6796875 l 1
 139.533203125 249.444335938 l 1
 348.2421875 416.99609375 l 1
 350.760742188 419.017578125 l 1
 353.279296875 421.040039062 l 1
 356.239257812 421.040039062 l 1
 359.200195312 421.040039062 l 1
 383.900390625 421.040039062 l 1
 402.53515625 421.040039062 l 1
 421.650390625 421.040039062 l 1
 405.422851562 408.48828125 l 1
EndSplineSet
EndChar

StartChar: l
Encoding: 56 108 54
Width: 166
VWidth: 0
Flags: W
HStem: 0 21G<-1 94.7832> 599.68 20G<106.943 202.728>
VStem: -1 203.728
LayerCount: 2
Fore
SplineSet
-1 0 m 1
 0.322265625 7.5 l 1
 1.6123046875 14.81640625 l 1
 105.62109375 604.6796875 l 1
 106.943359375 612.1796875 l 1
 108.266601562 619.6796875 l 1
 115.766601562 619.6796875 l 1
 123.266601562 619.6796875 l 1
 187.727539062 619.6796875 l 1
 195.227539062 619.6796875 l 1
 202.727539062 619.6796875 l 1
 201.404296875 612.1796875 l 1
 200.08203125 604.6796875 l 1
 96.0732421875 14.81640625 l 1
 94.783203125 7.5 l 1
 93.4609375 0 l 1
 85.9609375 0 l 1
 78.4609375 0 l 1
 14 0 l 1
 6.5 0 l 1
 -1 0 l 1
EndSplineSet
EndChar

StartChar: m
Encoding: 57 109 55
Width: 671
VWidth: 0
Flags: W
HStem: 0 21G<0 96.1113 278.529 374.722 525.744 621.852> 381.38 54.5703<200.063 314.965 468.619 570.388> 401.04 20G<72.918 169.029>
LayerCount: 2
Fore
SplineSet
547.549804688 435.950195312 m 0xc0
 595.453125 435.950195312 650.872070312 404.987304688 668.126953125 345.462890625 c 0
 672.92578125 329.096679688 673.416992188 299.939453125 669.686523438 278.784179688 c 2
 623.129882812 14.74609375 l 1
 621.8515625 7.5 l 1
 620.529296875 0 l 1
 613.029296875 0 l 1
 605.529296875 0 l 1
 540.739257812 0 l 1
 533.241210938 0 l 1
 525.744140625 0 l 1
 527.063476562 7.498046875 l 1
 528.33203125 14.7060546875 l 1
 574.413085938 276.55078125 l 2
 588.772460938 357.990234375 564.010742188 381.379882812 530.397460938 381.379882812 c 0
 485.825195312 381.379882812 435.24609375 350.750976562 425.014648438 292.723632812 c 2
 375.993164062 14.7109375 l 1
 374.721679688 7.5 l 1
 373.399414062 0 l 1
 365.899414062 0 l 1
 358.399414062 0 l 1
 293.529296875 0 l 1
 286.029296875 0 l 1
 278.529296875 0 l 1
 279.8515625 7.5 l 1
 281.123046875 14.7109375 l 1
 328.987304688 286.16015625 l 2
 339.623046875 346.481445312 315.584960938 381.379882812 256.977539062 381.379882812 c 0xc0
 211.298828125 381.379882812 155.206054688 342.643554688 147.37890625 298.25 c 2
 97.3828125 14.7109375 l 1
 96.111328125 7.5 l 1
 94.7890625 0 l 1
 87.2890625 0 l 1
 79.7890625 0 l 1
 15 0 l 1
 7.5 0 l 1
 0 0 l 1
 1.322265625 7.5 l 1
 2.59765625 14.732421875 l 1
 71.642578125 406.307617188 l 1
 72.91796875 413.540039062 l 1
 74.240234375 421.040039062 l 1
 81.740234375 421.040039062 l 1
 89.240234375 421.040039062 l 1
 154.029296875 421.040039062 l 1
 161.529296875 421.040039062 l 1
 169.029296875 421.040039062 l 1xa0
 167.70703125 413.540039062 l 1
 166.384765625 406.040039062 l 1
 164.079101562 392.962890625 l 1
 205.038085938 421.923828125 243.856445312 435.950195312 282.4296875 435.950195312 c 0
 327.875976562 435.950195312 375.977539062 418.416015625 408.48046875 366.81640625 c 1
 452.587890625 414.53125 502.174804688 435.950195312 547.549804688 435.950195312 c 0xc0
EndSplineSet
EndChar

StartChar: n
Encoding: 58 110 56
Width: 436
VWidth: 0
Flags: W
HStem: 0 21G<1 97.1123 279.53 375.723> 383.63 52.3203<196.544 317.339> 401.04 20G<73.918 170.03>
LayerCount: 2
Fore
SplineSet
165.595703125 395.887695312 m 1xa0
 206.129882812 423.893554688 245.389648438 435.950195312 283.430664062 435.950195312 c 0
 332.482421875 435.950195312 446.499023438 408.892578125 422.532226562 272.96875 c 2
 377.000976562 14.74609375 l 1
 375.72265625 7.5 l 1
 374.400390625 0 l 1
 366.900390625 0 l 1
 359.400390625 0 l 1
 294.530273438 0 l 1
 287.030273438 0 l 1
 279.530273438 0 l 1
 280.852539062 7.5 l 1
 282.124023438 14.7119140625 l 1
 330.544921875 289.319335938 l 2
 341.180664062 349.635742188 317.170898438 383.629882812 258.375 383.629882812 c 0xc0
 212.485351562 383.629882812 156.74609375 345.701171875 148.952148438 301.499023438 c 2
 98.3837890625 14.7119140625 l 1
 97.1123046875 7.5 l 1
 95.7900390625 0 l 1
 88.2900390625 0 l 1
 80.7900390625 0 l 1
 16 0 l 1
 8.5 0 l 1
 1 0 l 1
 2.322265625 7.5 l 1
 3.59765625 14.732421875 l 1
 72.642578125 406.307617188 l 1
 73.91796875 413.540039062 l 1
 75.240234375 421.040039062 l 1
 82.740234375 421.040039062 l 1
 90.240234375 421.040039062 l 1
 155.030273438 421.040039062 l 1
 162.530273438 421.040039062 l 1
 170.030273438 421.040039062 l 1
 168.708007812 413.540039062 l 1
 167.385742188 406.040039062 l 1
 165.595703125 395.887695312 l 1xa0
EndSplineSet
EndChar

StartChar: o
Encoding: 59 111 57
Width: 436
VWidth: 0
Flags: W
HStem: -16.0703 49.96<163.901 259.583> 392.28 43.6699<215.297 320.51>
LayerCount: 2
Fore
SplineSet
195.146484375 -16.0703125 m 0
 53.42578125 -16.0703125 19.82421875 112.427734375 38.44140625 218.014648438 c 0
 54.693359375 310.18359375 133.715820312 435.950195312 279.919921875 435.950195312 c 0
 406.095703125 435.950195312 466.358398438 344.803710938 444.001953125 218.014648438 c 0
 427.4921875 124.37890625 356.575195312 -16.0703125 195.146484375 -16.0703125 c 0
349.533203125 216.490234375 m 0
 367.206054688 316.71875 337.341796875 392.280273438 270.740234375 392.280273438 c 0
 202.330078125 392.280273438 148.587890625 305.443359375 132.903320312 216.490234375 c 0
 115.916992188 120.153320312 145.725585938 33.8896484375 214.965820312 33.8896484375 c 0
 262.375 33.8896484375 332.361328125 119.102539062 349.533203125 216.490234375 c 0
EndSplineSet
EndChar

StartChar: p
Encoding: 60 112 58
Width: 420
VWidth: 0
Flags: W
HStem: -200 21G<-36.2656 58.1172> -4.00977 62.1299<119.803 262.231> 370.04 65.9102<178.292 304.89> 401.04 20G<71.918 166.301>
LayerCount: 2
Fore
SplineSet
108.329101562 92.15234375 m 1xe0
 125.532226562 68.6298828125 150.58984375 58.1201171875 192.55859375 58.1201171875 c 0
 237.772460938 58.1201171875 301.020507812 73.388671875 323.755859375 202.325195312 c 0
 338.751953125 287.376953125 329.583007812 370.040039062 251.05859375 370.040039062 c 0
 197.61328125 370.040039062 178.272460938 359.983398438 151.846679688 339.0625 c 1
 108.329101562 92.15234375 l 1xe0
164.978515625 413.540039062 m 1
 163.615234375 405.8046875 l 1
 198.71484375 428.625 232.177734375 435.950195312 263.540039062 435.950195312 c 0xe0
 362.123046875 435.950195312 447.1796875 371.123046875 417.392578125 202.1953125 c 0
 393.794921875 68.3681640625 276.068359375 -4.009765625 183.012695312 -4.009765625 c 0
 144.612304688 -4.009765625 114.826171875 0.1484375 93.3828125 7.5 c 1
 59.4404296875 -185 l 1
 58.1171875 -192.5 l 1
 56.794921875 -200 l 1
 49.294921875 -200 l 1
 41.794921875 -200 l 1
 -21.265625 -200 l 1
 -28.765625 -200 l 1
 -36.265625 -200 l 1
 -34.943359375 -192.5 l 1
 -33.6201171875 -185 l 1
 70.6279296875 406.223632812 l 1
 71.91796875 413.540039062 l 1
 73.240234375 421.040039062 l 1
 80.740234375 421.040039062 l 1
 88.240234375 421.040039062 l 1
 151.30078125 421.040039062 l 1
 158.80078125 421.040039062 l 1
 166.30078125 421.040039062 l 1xd0
 164.978515625 413.540039062 l 1
EndSplineSet
EndChar

StartChar: q
Encoding: 61 113 59
Width: 439
VWidth: 0
Flags: W
HStem: -200 21G<254.334 348.797> -4.00977 62.1299<145.738 290.19> 370.04 65.9102<200.512 340.035> 401.04 20G<362.607 456.98>
LayerCount: 2
Fore
SplineSet
305.8984375 92.1552734375 m 1xe0
 349.456054688 339.063476562 l 1
 329.02734375 361.500976562 314.158203125 370.040039062 261.16796875 370.040039062 c 0
 182.624023438 370.040039062 144.32421875 287.393554688 129.325195312 202.325195312 c 0
 106.58984375 73.3876953125 164.454101562 58.1201171875 209.66796875 58.1201171875 c 0
 252.21484375 58.1201171875 282.247070312 70.345703125 305.8984375 92.1552734375 c 1xe0
363.9296875 421.040039062 m 1xd0
 371.4296875 421.040039062 l 1
 378.9296875 421.040039062 l 1
 441.98046875 421.040039062 l 1
 449.48046875 421.040039062 l 1
 456.98046875 421.040039062 l 1xd0
 455.658203125 413.540039062 l 1
 454.368164062 406.223632812 l 1
 350.120117188 -185 l 1
 348.796875 -192.5 l 1
 347.474609375 -200 l 1
 339.974609375 -200 l 1
 332.474609375 -200 l 1
 269.333984375 -200 l 1
 261.833984375 -200 l 1
 254.333984375 -200 l 1
 255.65625 -192.5 l 1
 256.979492188 -185 l 1
 290.921875 7.5 l 1
 265.6953125 -0.2861328125 235.259765625 -4.009765625 197.3125 -4.009765625 c 0
 104.256835938 -4.009765625 12.0546875 68.3642578125 35.65234375 202.1953125 c 0
 65.4384765625 371.12109375 173.36328125 435.950195312 271.950195312 435.950195312 c 0xe0
 303.532226562 435.950195312 336.471679688 426.5625 361.234375 405.750976562 c 1
 362.607421875 413.540039062 l 1
 363.9296875 421.040039062 l 1xd0
EndSplineSet
EndChar

StartChar: r
Encoding: 62 114 60
Width: 293
VWidth: 0
Flags: W
HStem: 0 21G<-1 95.2324> 403.96 20G<72.4336 168.666>
LayerCount: 2
Fore
SplineSet
348.837890625 424.323242188 m 1
 346.380859375 417.946289062 l 1
 343.953125 411.76953125 l 1
 331.428710938 380.529296875 l 1
 328.760742188 373.874023438 l 1
 326.037109375 367.080078125 l 1
 319.150390625 368.279296875 l 1
 312.177734375 369.494140625 l 2
 230.19921875 383.771484375 198.125 350.602539062 140.387695312 263.584960938 c 1
 96.5087890625 14.7353515625 l 1
 95.232421875 7.5 l 1
 93.91015625 0 l 1
 86.41015625 0 l 1
 78.91015625 0 l 1
 14 0 l 1
 6.5 0 l 1
 -1 0 l 1
 0.322265625 7.5 l 1
 1.59765625 14.734375 l 1
 71.1572265625 409.225585938 l 1
 72.43359375 416.459960938 l 1
 73.755859375 423.959960938 l 1
 81.255859375 423.959960938 l 1
 88.755859375 423.959960938 l 1
 153.666015625 423.959960938 l 1
 161.166015625 423.959960938 l 1
 168.666015625 423.959960938 l 1
 167.34375 416.459960938 l 1
 166.020507812 408.959960938 l 1
 157.514648438 360.717773438 l 1
 210.8515625 420.927734375 279.546875 451.044921875 337.364257812 428.748046875 c 2
 343.1015625 426.53515625 l 1
 348.837890625 424.323242188 l 1
EndSplineSet
EndChar

StartChar: s
Encoding: 63 115 61
Width: 349
VWidth: 0
Flags: W
HStem: -16.0703 49.8799<108.43 228.284> 385.97 49.9805<161.191 291.623>
VStem: 24.1279 45.4238<76.2715 161.912> 300.588 44.7832<294.753 375.998>
LayerCount: 2
Fore
SplineSet
144.573242188 329.913085938 m 0
 138.852539062 297.469726562 149.59375 282.026367188 214.229492188 262.29296875 c 0
 300.032226562 236.163085938 343.77734375 189.180664062 329.435546875 107.84375 c 0
 314.646484375 23.96875 233.002929688 -16.0703125 159.036132812 -16.0703125 c 0
 89.0751953125 -16.0703125 45.0537109375 23.748046875 24.943359375 74.2255859375 c 2
 24.5361328125 75.2490234375 l 1
 24.1279296875 76.271484375 l 1
 24.0859375 77.42578125 l 1
 24.0439453125 78.5791015625 l 2
 22.5458984375 119.776367188 27.2373046875 154.283203125 27.3017578125 154.7578125 c 2
 28.26171875 161.912109375 l 1
 29.2216796875 169.067382812 l 1
 36.4658203125 169.69921875 l 1
 43.7109375 170.331054688 l 1
 43.7109375 170.331054688 52.662109375 171.111328125 57.2578125 171.534179688 c 2
 64.74609375 172.223632812 l 1
 72.234375 172.9140625 l 1
 71.7275390625 165.556640625 l 1
 71.21875 158.200195312 l 2
 70.7177734375 150.918945312 69.63671875 137.541015625 69.5517578125 135.719726562 c 0
 67.53125 90.322265625 109.046875 33.8095703125 166.541992188 33.8095703125 c 0
 197.583007812 33.8095703125 250.737304688 52.89453125 260.265625 106.935546875 c 0
 267.05859375 145.459960938 243.713867188 157.455078125 172.721679688 180.00390625 c 0
 81.9375 208.896484375 61.3662109375 263.125 73.02734375 329.259765625 c 0
 83.822265625 390.48046875 156.756835938 435.950195312 235.370117188 435.950195312 c 0
 291.5078125 435.950195312 315.396484375 421.935546875 342.275390625 394.799804688 c 2
 343.427734375 393.635742188 l 1
 344.580078125 392.47265625 l 1
 344.975585938 390.821289062 l 1
 345.37109375 389.170898438 l 2
 352.510742188 359.374023438 342.297851562 309.771484375 342.206054688 309.295898438 c 2
 340.849609375 301.98046875 l 1
 339.48828125 294.638671875 l 1
 332.130859375 294.549804688 l 1
 324.774414062 294.4609375 l 1
 324.774414062 294.4609375 317.044921875 294.37109375 311.78515625 294.20703125 c 2
 304.563476562 293.983398438 l 1
 297.34375 293.759765625 l 1
 298.075195312 300.924804688 l 1
 298.805664062 308.08984375 l 2
 299.463867188 314.534179688 300.572265625 328.365234375 300.587890625 328.830078125 c 0
 299.721679688 372.149414062 278.634765625 385.969726562 228.286132812 385.969726562 c 0
 184.483398438 385.969726562 152.02734375 372.1875 144.573242188 329.913085938 c 0
EndSplineSet
EndChar

StartChar: t
Encoding: 64 116 62
Width: 341
VWidth: 0
Flags: W
HStem: -16.0703 56.8008<192.513 258.738> 385.95 49.9795<74.7832 141.593 246.076 337.604>
VStem: 67.0537 279.363
LayerCount: 2
Fore
SplineSet
329.893554688 108.280273438 m 1
 328.571289062 100.780273438 l 1
 327.251953125 93.2998046875 l 2
 317.633789062 38.7509765625 278.29296875 -16.0703125 204.13671875 -16.0703125 c 0
 156.0859375 -16.0703125 123.887695312 -3.6572265625 103.534179688 32.5810546875 c 0
 81.955078125 71.1064453125 95.080078125 118.64453125 106.403320312 182.860351562 c 2
 142.297851562 385.950195312 l 1
 82.0537109375 385.950195312 l 1
 74.5537109375 385.950195312 l 1
 67.0537109375 385.950195312 l 1
 68.3759765625 393.450195312 l 1
 69.6982421875 400.950195312 l 1
 72.138671875 414.790039062 l 1
 73.4609375 422.290039062 l 1
 74.783203125 429.790039062 l 1
 82.283203125 429.790039062 l 1
 89.783203125 429.790039062 l 1
 112.793945312 429.790039062 l 2
 156.263671875 429.790039062 204.879882812 450.921875 214.068359375 503.030273438 c 2
 218.109375 525.950195312 l 1
 219.431640625 533.450195312 l 1
 220.75390625 540.950195312 l 1
 228.25390625 540.950195312 l 1
 235.75390625 540.950195312 l 1
 249.59375 540.950195312 l 1
 257.09375 540.950195312 l 1
 264.59375 540.950195312 l 1
 263.271484375 533.450195312 l 1
 261.94921875 525.950195312 l 1
 246.076171875 435.9296875 l 1
 331.416992188 435.9296875 l 1
 338.916992188 435.9296875 l 1
 346.416992188 435.9296875 l 1
 345.094726562 428.4296875 l 1
 343.772460938 420.9296875 l 1
 340.249023438 400.950195312 l 1
 338.926757812 393.450195312 l 1
 337.604492188 385.950195312 l 1
 330.104492188 385.950195312 l 1
 322.604492188 385.950195312 l 1
 237.263671875 385.950195312 l 1
 193.708007812 138.936523438 l 2
 180.541992188 64.2685546875 195.686523438 40.73046875 212.51171875 40.73046875 c 0
 247.049804688 40.73046875 257.028320312 54.5634765625 267.823242188 80.9169921875 c 0
 268.267578125 81.9501953125 271.073242188 88.939453125 274.030273438 96.458984375 c 2
 276.353515625 102.370117188 l 1
 278.677734375 108.280273438 l 1
 284.725585938 108.280273438 l 1
 290.7734375 108.280273438 l 1
 315.831054688 108.280273438 l 1
 322.393554688 108.280273438 l 1
 329.893554688 108.280273438 l 1
EndSplineSet
EndChar

StartChar: u
Encoding: 65 117 63
Width: 426
VWidth: 0
Flags: W
HStem: -16.0703 54.3604<138.613 240.975> 0 21G<277.311 373.123> 401.04 20G<72.918 168.811 350.238 446.041>
LayerCount: 2
Fore
SplineSet
446.041015625 421.040039062 m 1xa0
 444.71875 413.540039062 l 1
 443.443359375 406.307617188 l 1
 374.3984375 14.732421875 l 1
 373.123046875 7.5 l 1
 371.80078125 0 l 1
 364.30078125 0 l 1
 356.80078125 0 l 1
 292.310546875 0 l 1
 284.810546875 0 l 1
 277.310546875 0 l 1x60
 278.6328125 7.5 l 1
 279.955078125 15 l 1
 283.91796875 37.474609375 l 1
 249.811523438 7.4423828125 213.146484375 -16.0703125 164.296875 -16.0703125 c 0
 112.40234375 -16.0703125 5.369140625 30.4501953125 28.9619140625 164.25 c 2
 71.640625 406.29296875 l 1
 72.91796875 413.540039062 l 1
 74.240234375 421.040039062 l 1
 81.740234375 421.040039062 l 1
 89.240234375 421.040039062 l 1
 153.810546875 421.040039062 l 1
 161.310546875 421.040039062 l 1
 168.810546875 421.040039062 l 1
 167.48828125 413.540039062 l 1
 166.216796875 406.328125 l 1
 120.657226562 147.9453125 l 2
 109.758789062 86.138671875 133.883789062 38.2900390625 189.642578125 38.2900390625 c 0
 232.171875 38.2900390625 293.154296875 89.7978515625 301.26953125 135.82421875 c 2
 348.966796875 406.328125 l 1
 350.23828125 413.540039062 l 1
 351.560546875 421.040039062 l 1
 359.060546875 421.040039062 l 1
 366.560546875 421.040039062 l 1
 431.041015625 421.040039062 l 1
 438.541015625 421.040039062 l 1
 446.041015625 421.040039062 l 1xa0
EndSplineSet
EndChar

StartChar: v
Encoding: 66 118 64
Width: 422
VWidth: 0
Flags: W
HStem: 401.04 20G<72.1611 175.687 407.434 461.812>
LayerCount: 2
Fore
SplineSet
409.971679688 421.040039062 m 1
 415.5703125 421.040039062 l 1
 421.169921875 421.040039062 l 1
 441.66015625 421.040039062 l 1
 451.686523438 421.040039062 l 1
 461.811523438 421.040039062 l 1
 457.211914062 411.68359375 l 1
 452.796875 402.704101562 l 1
 252.16796875 -5.3408203125 l 1
 249.649414062 -10.6884765625 l 1
 247.116210938 -16.0703125 l 1
 241.505859375 -16.0703125 l 1
 235.895507812 -16.0703125 l 1
 187.435546875 -16.0703125 l 1
 182.30859375 -16.0703125 l 1
 177.180664062 -16.0703125 l 1
 176.162109375 -11.29296875 l 1
 175.15234375 -6.5556640625 l 1
 76.8583984375 401.541015625 l 1
 74.55859375 411.0859375 l 1
 72.1611328125 421.040039062 l 1
 83.26953125 421.040039062 l 1
 94.240234375 421.040039062 l 1
 164.48046875 421.040039062 l 1
 169.5546875 421.040039062 l 1
 174.62890625 421.040039062 l 1
 175.686523438 416.330078125 l 1
 176.744140625 411.620117188 l 1
 250.381835938 83.4970703125 l 1
 404.896484375 410.303710938 l 1
 407.43359375 415.671875 l 1
 409.971679688 421.040039062 l 1
EndSplineSet
EndChar

StartChar: w
Encoding: 67 119 65
Width: 625
VWidth: 0
Flags: W
HStem: 401.04 20G<72.165 175.515 609.802 664.087>
LayerCount: 2
Fore
SplineSet
664.086914062 421.040039062 m 1
 659.489257812 411.684570312 l 1
 655.077148438 402.70703125 l 1
 454.538085938 -5.337890625 l 1
 452.021484375 -10.6875 l 1
 449.48828125 -16.0703125 l 1
 443.876953125 -16.0703125 l 1
 438.265625 -16.0703125 l 1
 389.795898438 -16.0703125 l 1
 384.66796875 -16.0703125 l 1
 379.5390625 -16.0703125 l 1
 378.521484375 -11.291015625 l 1
 377.50390625 -6.5126953125 l 1
 338.245117188 177.779296875 l 1
 252.067382812 -5.361328125 l 1
 249.561523438 -10.6875 l 1
 247.028320312 -16.0703125 l 1
 241.416992188 -16.0703125 l 1
 235.805664062 -16.0703125 l 1
 187.345703125 -16.0703125 l 1
 182.217773438 -16.0703125 l 1
 177.088867188 -16.0703125 l 1
 176.071289062 -11.291015625 l 1
 175.0625 -6.552734375 l 1
 76.857421875 401.54296875 l 1
 74.560546875 411.086914062 l 1
 72.1650390625 421.040039062 l 1
 83.271484375 421.040039062 l 1
 94.240234375 421.040039062 l 1
 164.309570312 421.040039062 l 1
 169.3828125 421.040039062 l 1
 174.45703125 421.040039062 l 1
 175.514648438 416.331054688 l 1
 176.572265625 411.62109375 l 1
 250.268554688 83.4296875 l 1
 368.057617188 332.739257812 l 1
 377.833984375 353.430664062 l 1
 387.609375 374.12109375 l 1
 392.102539062 354.090820312 l 1
 396.596679688 334.059570312 l 1
 452.825195312 83.4384765625 l 1
 607.263671875 410.299804688 l 1
 609.801757812 415.669921875 l 1
 612.338867188 421.040039062 l 1
 617.939453125 421.040039062 l 1
 623.540039062 421.040039062 l 1
 643.939453125 421.040039062 l 1
 653.963867188 421.040039062 l 1
 664.086914062 421.040039062 l 1
EndSplineSet
EndChar

StartChar: x
Encoding: 68 120 66
Width: 482
VWidth: 0
Flags: W
HStem: 0 21G<-1.32617 63.6279 344.402 465.267> 401.04 20G<96.1885 214.657 434.169 499.04>
LayerCount: 2
Fore
SplineSet
486.913085938 409.208007812 m 1
 475.298828125 397.875976562 l 1
 318.162109375 244.565429688 l 1
 451.619140625 22.689453125 l 1
 458.294921875 11.5908203125 l 1
 465.266601562 0 l 1
 450.25390625 0 l 1
 435.549804688 0 l 1
 353.780273438 0 l 1
 349.938476562 0 l 1
 346.09765625 0 l 1
 344.40234375 3.1171875 l 1
 342.708007812 6.234375 l 1
 244.060546875 187.642578125 l 1
 66.376953125 5.6298828125 l 1
 63.6279296875 2.8154296875 l 1
 60.8798828125 0 l 1
 57.275390625 0 l 1
 53.669921875 0 l 1
 30 0 l 1
 14.5087890625 0 l 1
 -1.326171875 0 l 1
 10.8701171875 12.275390625 l 1
 22.5517578125 24.03125 l 1
 218.215820312 220.956054688 l 1
 111.892578125 413.5 l 1
 104.211914062 417.188476562 l 1
 96.1884765625 421.040039062 l 1
 110.948242188 421.040039062 l 1
 125.41015625 421.040039062 l 1
 205.280273438 421.040039062 l 1
 209.12109375 421.040039062 l 1
 212.9609375 421.040039062 l 1
 214.657226562 417.923828125 l 1
 216.352539062 414.807617188 l 1
 293.056640625 273.833984375 l 1
 431.420898438 415.416992188 l 1
 434.168945312 418.228515625 l 1
 436.916015625 421.040039062 l 1
 440.517578125 421.040039062 l 1
 444.120117188 421.040039062 l 1
 467.700195312 421.040039062 l 1
 483.198242188 421.040039062 l 1
 499.040039062 421.040039062 l 1
 486.913085938 409.208007812 l 1
EndSplineSet
EndChar

StartChar: y
Encoding: 69 121 67
Width: 425
VWidth: 0
Flags: W
HStem: -200 49.5498<-25.7233 83.0033> 401.04 20G<73.3174 172.472 423.686 478.188>
LayerCount: 2
Fore
SplineSet
189.0703125 -61.158203125 m 0
 175.127929688 -85.462890625 155.694335938 -121.291992188 131.6171875 -148.043945312 c 0
 97.77734375 -185.641601562 53.0517578125 -200 20.9345703125 -200 c 0
 -13.255859375 -200 -55.0380859375 -189.546875 -74.9638671875 -153.9296875 c 2
 -78.291015625 -147.981445312 l 1
 -81.619140625 -142.033203125 l 1
 -74.9521484375 -137.565429688 l 1
 -68.28515625 -133.09765625 l 1
 -50.6171875 -121.2578125 l 1
 -44.724609375 -117.30859375 l 1
 -38.83203125 -113.360351562 l 1
 -35.0146484375 -117.9609375 l 1
 -31.1962890625 -122.560546875 l 2
 -14.302734375 -142.918945312 3.64453125 -150.450195312 24.5419921875 -150.450195312 c 0
 46.150390625 -150.450195312 62.568359375 -144.348632812 83.09375 -128.537109375 c 0
 102.99609375 -113.908203125 152.884765625 -34.2939453125 197.762695312 40.8447265625 c 1
 80.0908203125 400.349609375 l 1
 76.759765625 410.525390625 l 1
 73.3173828125 421.040039062 l 1
 85.34765625 421.040039062 l 1
 97.240234375 421.040039062 l 1
 161.98046875 421.040039062 l 1
 166.530273438 421.040039062 l 1
 171.081054688 421.040039062 l 1
 172.471679688 417.004882812 l 1
 173.861328125 412.96875 l 1
 264.143554688 150.900390625 l 1
 420.939453125 411.890625 l 1
 423.685546875 416.4609375 l 1
 426.430664062 421.030273438 l 1
 431.395507812 421.030273438 l 1
 436.359375 421.030273438 l 1
 455.809570312 421.030273438 l 1
 466.934570312 421.030273438 l 1
 478.1875 421.030273438 l 1
 472.080078125 410.95703125 l 1
 466.197265625 401.25390625 l 2
 447.409179688 370.267578125 413.752929688 314.653320312 405.204101562 300.2421875 c 0
 357.669921875 220.743164062 236.056640625 17.2060546875 189.0703125 -61.158203125 c 0
EndSplineSet
EndChar

StartChar: z
Encoding: 70 122 68
Width: 406
VWidth: 0
Flags: W
HStem: 0 48.8945<128.559 353.75> 371.16 49.8799<75.2402 281.578>
LayerCount: 2
Fore
SplineSet
362.358398438 48.8203125 m 1
 361.037109375 41.326171875 l 1
 359.76171875 34.0947265625 l 1
 356.39453125 14.99609375 l 1
 355.072265625 7.5 l 1
 353.75 0 l 1
 346.25 0 l 1
 338.75 0 l 1
 6.7890625 0 l 1
 -6.3193359375 0 l 1
 -19.6875 0 l 1
 -12.0439453125 3.8388671875 l 1
 -4.7548828125 7.5 l 1
 281.578125 371.16015625 l 1
 81.4453125 371.16015625 l 1
 73.9453125 371.16015625 l 1
 66.4453125 371.16015625 l 1
 67.767578125 378.66015625 l 1
 69.0908203125 386.16015625 l 1
 72.595703125 406.040039062 l 1
 73.91796875 413.540039062 l 1
 75.240234375 421.040039062 l 1
 82.740234375 421.040039062 l 1
 90.240234375 421.040039062 l 1
 405.41015625 421.040039062 l 1
 418.575195312 421.040039062 l 1
 431.983398438 421.040039062 l 1
 424.286132812 417.186523438 l 1
 416.922851562 413.5 l 1
 128.55859375 48.89453125 l 1
 347.364257812 48.8251953125 l 1
 354.860351562 48.8232421875 l 1
 362.358398438 48.8203125 l 1
EndSplineSet
EndChar

StartChar: exclam
Encoding: 1 33 69
Width: 170
VWidth: 0
Flags: W
HStem: -16.0703 100.09<18.5728 89.9817> 613.52 20G<111.384 207.327>
VStem: 4.23145 100.09<-2.24877 70.2018>
LayerCount: 2
Fore
SplineSet
207.327148438 633.51953125 m 1
 206.00390625 626.01953125 l 1
 204.681640625 618.51953125 l 2
 166.854492188 403.98828125 95.8984375 128.635742188 95.84765625 128.436523438 c 2
 94.072265625 121.54296875 l 1
 92.296875 114.650390625 l 1
 85.3818359375 114.650390625 l 1
 78.4658203125 114.650390625 l 1
 58.5859375 114.650390625 l 1
 51.669921875 114.650390625 l 1
 44.75390625 114.650390625 l 1
 45.41015625 121.543945312 l 1
 46.06640625 128.4375 l 2
 46.0849609375 128.63671875 72.265625 404.168945312 110.061523438 618.51953125 c 2
 111.383789062 626.01953125 l 1
 112.70703125 633.51953125 l 1
 120.20703125 633.51953125 l 1
 127.70703125 633.51953125 l 1
 192.327148438 633.51953125 l 1
 199.827148438 633.51953125 l 1
 207.327148438 633.51953125 l 1
45.4560546875 -16.0703125 m 0
 17.814453125 -16.0703125 -0.642578125 6.3349609375 4.2314453125 33.98046875 c 0
 9.1044921875 61.615234375 35.4619140625 84.01953125 63.1044921875 84.01953125 c 0
 90.7373046875 84.01953125 109.1953125 61.6171875 104.321289062 33.98046875 c 0
 99.4482421875 6.3408203125 73.095703125 -16.0703125 45.4560546875 -16.0703125 c 0
EndSplineSet
EndChar

StartChar: emdash
Encoding: 73 8212 71
Width: 702
VWidth: 0
Flags: W
HStem: 153.729 94.5703<44.5225 645.106>
LayerCount: 2
Fore
SplineSet
44.5224609375 248.298828125 m 1
 52.0224609375 248.298828125 l 1
 59.5224609375 248.298828125 l 1
 646.782226562 248.298828125 l 1
 654.282226562 248.298828125 l 1
 661.782226562 248.298828125 l 1
 660.458984375 240.798828125 l 1
 659.13671875 233.298828125 l 1
 647.750976562 168.728515625 l 1
 646.428710938 161.228515625 l 1
 645.106445312 153.728515625 l 1
 637.606445312 153.728515625 l 1
 630.106445312 153.728515625 l 1
 42.8466796875 153.728515625 l 1
 35.3466796875 153.728515625 l 1
 27.8466796875 153.728515625 l 1
 29.1689453125 161.228515625 l 1
 30.4912109375 168.728515625 l 1
 41.876953125 233.298828125 l 1
 43.19921875 240.798828125 l 1
 44.5224609375 248.298828125 l 1
EndSplineSet
EndChar

StartChar: quotedblleft
Encoding: 71 8220 72
Width: 344
VWidth: 0
Flags: W
HStem: 467.74 163.924<149.875 195.249 305.385 350.263>
VStem: 92.8008 139.946<495.473 580.923> 248.141 139.946<495.474 580.907>
LayerCount: 2
Fore
SplineSet
233.736328125 615.349609375 m 1
 223.481445312 611.967773438 l 1
 216.008789062 609.502929688 l 2
 209.368164062 607.3125 198.567382812 603.715820312 197.1796875 603.243164062 c 0
 196.416992188 602.973632812 195.772460938 602.720703125 195.772460938 602.720703125 c 1
 222.6796875 593.772460938 238.190429688 567.69921875 232.747070312 536.771484375 c 0
 226.026367188 498.655273438 189.640625 467.740234375 151.525390625 467.740234375 c 0
 113.9609375 467.740234375 87.009765625 493.455078125 92.80078125 526.297851562 c 0
 95.7724609375 543.150390625 98.5712890625 554.9296875 108.967773438 572.841796875 c 0
 126.5546875 603.069335938 163.172851562 616.827148438 197.2421875 631.6640625 c 2
 204.47265625 635.359375 l 1
 213.849609375 640 l 1
 220.377929688 643 l 1
 233.736328125 615.349609375 l 1
389.080078125 615.348632812 m 1
 378.823242188 611.965820312 l 1
 371.348632812 609.500976562 l 2
 364.70703125 607.311523438 353.90625 603.713867188 352.51953125 603.241210938 c 0
 351.754882812 602.971679688 351.114257812 602.720703125 351.114257812 602.720703125 c 1
 378.029296875 593.770507812 393.5390625 567.6953125 388.086914062 536.771484375 c 0
 381.366210938 498.657226562 344.991210938 467.740234375 306.865234375 467.740234375 c 0
 269.30078125 467.740234375 242.349609375 493.455078125 248.140625 526.297851562 c 0
 251.112304688 543.150390625 253.889648438 554.938476562 264.307617188 572.841796875 c 0
 281.89453125 603.069335938 316.193359375 616.163085938 350.262695312 631 c 2
 359.8125 635.359375 l 1
 374.202148438 642 l 1
 389.080078125 615.348632812 l 1
EndSplineSet
EndChar

StartChar: quotedblright
Encoding: 72 8221 73
Width: 323
VWidth: 0
Flags: W
HStem: 472 161.52<143.227 187.67 295.05 341.307>
VStem: 100.548 138.934<520.394 609.079> 255.888 138.933<520.388 609.079>
LayerCount: 2
Fore
SplineSet
256.051757812 498.202148438 m 1
 266.256835938 501.302734375 l 1
 273.694335938 503.5625 l 2
 280.302734375 505.5703125 291.051757812 508.868164062 292.431640625 509.301757812 c 0
 293.189453125 509.547851562 293.831054688 509.779296875 293.831054688 509.779296875 c 1
 266.791992188 517.983398438 250.8984375 541.884765625 255.887695312 570.237304688 c 0
 262.048828125 605.178710938 297.981445312 633.51953125 336.096679688 633.51953125 c 0
 373.661132812 633.51953125 400.612304688 607.8046875 394.8203125 574.961914062 c 0
 391.849609375 558.109375 389.071289062 546.321289062 378.654296875 528.41796875 c 0
 361.06640625 498.190429688 328.888671875 486.548828125 295.049804688 471 c 2
 284.16796875 466 l 1
 275.787109375 462.13671875 l 1
 256.051757812 498.202148438 l 1
101.987304688 499 m 1
 110.915039062 501.302734375 l 1
 118.354492188 503.5625 l 2
 124.962890625 505.5703125 135.711914062 508.868164062 137.091796875 509.301757812 c 0
 137.852539062 509.548828125 138.489257812 509.779296875 138.489257812 509.779296875 c 1
 111.442382812 517.983398438 95.5498046875 541.887695312 100.547851562 570.237304688 c 0
 106.708984375 605.176757812 142.630859375 633.51953125 180.756835938 633.51953125 c 0
 218.321289062 633.51953125 245.272460938 607.8046875 239.481445312 574.962890625 c 0
 236.509765625 558.109375 233.732421875 546.322265625 223.314453125 528.41796875 c 0
 205.737304688 498.2109375 177.315429688 486.548828125 143.2265625 472 c 2
 129.16796875 466 l 1
 119.462890625 462 l 1
 101.987304688 499 l 1
EndSplineSet
EndChar

StartChar: quoteleft
Encoding: 74 8216 74
Width: 165
VWidth: 0
Flags: W
HStem: 467.74 175.26
VStem: 92.8008 139.946<495.474 580.878>
LayerCount: 2
Fore
SplineSet
233.740234375 615.348632812 m 1
 223.483398438 611.965820312 l 1
 216.008789062 609.500976562 l 2
 209.3671875 607.311523438 198.56640625 603.713867188 197.1796875 603.241210938 c 0
 196.416992188 602.97265625 195.771484375 602.719726562 195.771484375 602.719726562 c 1
 222.680664062 593.771484375 238.200195312 567.697265625 232.747070312 536.771484375 c 0
 226.026367188 498.657226562 189.651367188 467.740234375 151.525390625 467.740234375 c 0
 113.9609375 467.740234375 87.009765625 493.455078125 92.80078125 526.297851562 c 0
 95.7724609375 543.150390625 98.5498046875 554.938476562 108.967773438 572.841796875 c 0
 126.5546875 603.069335938 161.310546875 614.936523438 194.262695312 631 c 2
 210.672851562 639 l 1
 219.377929688 643 l 1
 233.740234375 615.348632812 l 1
EndSplineSet
EndChar

StartChar: quoteright
Encoding: 75 8217 75
Width: 156
VWidth: 0
Flags: W
HStem: 462.137 171.383
VStem: 98.5479 138.934<520.44 609.079>
LayerCount: 2
Fore
SplineSet
98.70703125 498.202148438 m 1
 108.915039062 501.302734375 l 1
 116.354492188 503.5625 l 2
 122.962890625 505.5703125 133.711914062 508.868164062 135.091796875 509.301757812 c 0
 135.849609375 509.547851562 136.491210938 509.779296875 136.491210938 509.779296875 c 1
 109.451171875 517.982421875 93.548828125 541.885742188 98.5478515625 570.237304688 c 0
 104.708984375 605.178710938 140.641601562 633.51953125 178.756835938 633.51953125 c 0
 216.321289062 633.51953125 243.272460938 607.8046875 237.481445312 574.962890625 c 0
 234.509765625 558.109375 231.731445312 546.322265625 221.314453125 528.41796875 c 0
 203.737304688 498.2109375 176.056640625 488.463867188 142.40234375 473 c 2
 129.344726562 467 l 1
 118.447265625 462.13671875 l 1
 98.70703125 498.202148438 l 1
EndSplineSet
EndChar

StartChar: endash
Encoding: 76 8211 76
Width: 456
VWidth: 0
Flags: W
HStem: 153.729 94.5703<43.7822 398.597>
LayerCount: 2
Fore
SplineSet
43.7822265625 248.298828125 m 1
 51.2822265625 248.298828125 l 1
 58.7822265625 248.298828125 l 1
 400.272460938 248.298828125 l 1
 407.772460938 248.298828125 l 1
 415.272460938 248.298828125 l 1
 413.94921875 240.798828125 l 1
 412.626953125 233.298828125 l 1
 401.241210938 168.728515625 l 1
 399.918945312 161.228515625 l 1
 398.596679688 153.728515625 l 1
 391.096679688 153.728515625 l 1
 383.596679688 153.728515625 l 1
 42.1064453125 153.728515625 l 1
 34.6064453125 153.728515625 l 1
 27.1064453125 153.728515625 l 1
 28.4287109375 161.228515625 l 1
 29.7509765625 168.728515625 l 1
 41.13671875 233.298828125 l 1
 42.458984375 240.798828125 l 1
 43.7822265625 248.298828125 l 1
EndSplineSet
EndChar

StartChar: f_f
Encoding: 77 64256 77
Width: 548
VWidth: 0
Flags: W
HStem: 0 21G<68.9727 164.702 269.643 365.372> 383.54 49.8701<76.4219 136.512 239.791 337.191 440.472 514.488> 583.4 50.1191<270.585 353.816 471.149 549.828>
LayerCount: 2
Fore
SplineSet
231.008789062 383.540039062 m 1
 165.973632812 14.7119140625 l 1
 164.702148438 7.5 l 1
 163.379882812 0 l 1
 155.879882812 0 l 1
 148.379882812 0 l 1
 83.9697265625 0 l 1
 76.4716796875 0 l 1
 68.97265625 0 l 1
 70.2939453125 7.498046875 l 1
 71.5634765625 14.708984375 l 1
 136.51171875 383.540039062 l 1
 82.62890625 383.540039062 l 1
 75.12890625 383.540039062 l 1
 67.62890625 383.540039062 l 1
 70.26953125 398.51953125 l 1
 72.9111328125 413.5 l 1
 73.77734375 418.41015625 l 1
 75.099609375 425.91015625 l 1
 76.421875 433.41015625 l 1
 83.921875 433.41015625 l 1
 91.421875 433.41015625 l 1
 145.311523438 433.41015625 l 1
 156.025390625 494.169921875 l 2
 171.263671875 580.59375 220.723632812 633.51953125 309.45703125 633.51953125 c 0
 358.396484375 633.51953125 393.916992188 620.658203125 416.06640625 605.637695312 c 1
 442.943359375 625.6171875 473.081054688 633.51953125 510.116210938 633.51953125 c 0
 581.368164062 633.51953125 619.279296875 606.215820312 631.861328125 578.111328125 c 2
 634.73828125 571.685546875 l 1
 637.615234375 565.260742188 l 1
 630.454101562 561.313476562 l 1
 623.294921875 557.3671875 l 1
 585.811523438 536.70703125 l 1
 579.759765625 533.372070312 l 1
 573.708984375 530.036132812 l 1
 570.415039062 534.907226562 l 1
 567.122070312 539.779296875 l 2
 541.706054688 577.370117188 529.913085938 583.400390625 503.94921875 583.400390625 c 0
 474.290039062 583.400390625 461.611328125 553.299804688 451.185546875 494.169921875 c 2
 440.471679688 433.41015625 l 1
 508.28125 433.41015625 l 1
 515.78125 433.41015625 l 1
 523.28125 433.41015625 l 1
 521.958984375 425.91015625 l 1
 520.63671875 418.41015625 l 1
 519.770507812 413.5 l 1
 517.12890625 398.51953125 l 1
 514.48828125 383.540039062 l 1
 506.98828125 383.540039062 l 1
 499.48828125 383.540039062 l 1
 431.678710938 383.540039062 l 1
 366.643554688 14.7119140625 l 1
 365.372070312 7.5 l 1
 364.049804688 0 l 1
 356.549804688 0 l 1
 349.049804688 0 l 1
 284.639648438 0 l 1
 277.140625 0 l 1
 269.642578125 0 l 1
 270.962890625 7.4990234375 l 1
 272.233398438 14.708984375 l 1
 337.19140625 383.540039062 l 1
 231.008789062 383.540039062 l 1
345.971679688 433.41015625 m 1
 356.685546875 494.169921875 l 2
 359.966796875 512.782226562 365.51171875 531.55859375 371.200195312 545.360351562 c 1
 343.409179688 574.36328125 326.403320312 583.400390625 303.268554688 583.400390625 c 0
 273.610351562 583.400390625 260.930664062 553.299804688 250.504882812 494.169921875 c 2
 239.791015625 433.41015625 l 1
 345.971679688 433.41015625 l 1
EndSplineSet
LCarets2: 1 231
Ligature2: "'liga' Standard Ligatures in Latin lookup 0-1" f f
EndChar

StartChar: f_i
Encoding: 78 64257 78
Width: 457
VWidth: 0
Flags: W
HStem: 0 21G<68.9727 164.702 269.37 365.092> 384 49.4199<76.4238 136.503 239.794 336.99> 583.41 50.1201<273.978 359.959>
LayerCount: 2
Fore
SplineSet
363.76953125 0 m 1
 356.26953125 0 l 1
 348.779296875 0 l 1
 284.370117188 0 l 1
 276.870117188 0 l 1
 269.370117188 0 l 1
 270.692382812 7.5 l 1
 272.014648438 15 l 1
 336.990234375 384 l 1
 231 384 l 1
 166.024414062 15 l 1
 164.702148438 7.5 l 1
 163.379882812 0 l 1
 155.879882812 0 l 1
 148.379882812 0 l 1
 83.9697265625 0 l 1
 76.4716796875 0 l 1
 68.97265625 0 l 1
 70.2939453125 7.498046875 l 1
 71.6142578125 14.9970703125 l 1
 136.502929688 384 l 1
 82.6201171875 384 l 1
 75.1201171875 384 l 1
 67.6201171875 384 l 1
 67.947265625 385.852539062 l 1
 68.0947265625 386.693359375 l 1
 68.4873046875 388.919921875 l 1
 69.810546875 396.419921875 l 1
 76.423828125 433.419921875 l 1
 83.923828125 433.419921875 l 1
 91.423828125 433.419921875 l 1
 145.303710938 433.419921875 l 1
 156.017578125 494.1796875 l 2
 171.489257812 581.92578125 228.955078125 633.530273438 316.817382812 633.530273438 c 0
 387.806640625 633.530273438 429.89453125 606.818359375 442.744140625 578.12109375 c 2
 445.62109375 571.6953125 l 1
 448.498046875 565.270507812 l 1
 441.336914062 561.323242188 l 1
 434.176757812 557.376953125 l 1
 396.693359375 536.716796875 l 1
 390.640625 533.380859375 l 1
 384.587890625 530.044921875 l 1
 381.294921875 534.91796875 l 1
 378.001953125 539.790039062 l 2
 353.07421875 576.672851562 336.987304688 583.41015625 310.650390625 583.41015625 c 0
 279.778320312 583.41015625 260.504882812 550.875976562 250.5078125 494.1796875 c 2
 239.793945312 433.419921875 l 1
 425.193359375 433.419921875 l 1
 432.693359375 433.419921875 l 1
 440.193359375 433.419921875 l 1
 438.87109375 425.919921875 l 1
 437.547851562 418.419921875 l 1
 366.208007812 13.8310546875 l 1
 365.091796875 7.5 l 1
 363.76953125 0 l 1
EndSplineSet
EndChar

StartChar: f_l
Encoding: 79 64258 79
Width: 459
VWidth: 0
Flags: W
HStem: 0 21G<68.9727 164.731 269.359 365.002> 383 50.4102<76.4238 136.474 239.831 313.811> 583.4 50.1299<273.279 361.878>
LayerCount: 2
Fore
SplineSet
367.201171875 554.885742188 m 1
 347.672851562 582.572265625 329.739257812 583.400390625 309.068359375 583.400390625 c 0
 288.677734375 583.400390625 264.24609375 571.874023438 250.544921875 494.169921875 c 2
 239.831054688 433.41015625 l 1
 307.611328125 433.41015625 l 1
 315.141601562 433.41015625 l 1
 322.641601562 433.41015625 l 1
 315.999023438 395.41015625 l 1
 314.676757812 387.91015625 l 1
 314.28515625 385.688476562 l 1
 314.13671875 384.849609375 l 1
 313.810546875 383 l 1
 306.310546875 383 l 1
 298.780273438 383 l 1
 231 383 l 1
 166.053710938 15 l 1
 164.731445312 7.5 l 1
 163.409179688 0 l 1
 155.909179688 0 l 1
 148.379882812 0 l 1
 84 0 l 1
 76.4716796875 0 l 1
 68.97265625 0 l 1
 70.2939453125 7.498046875 l 1
 71.6142578125 14.9970703125 l 1
 136.473632812 383 l 1
 82.5908203125 383 l 1
 75.0908203125 383 l 1
 67.5908203125 383 l 1
 67.91796875 384.852539062 l 1
 68.0654296875 385.693359375 l 1
 68.4580078125 387.919921875 l 1
 69.78125 395.419921875 l 1
 76.423828125 433.419921875 l 1
 83.923828125 433.419921875 l 1
 91.453125 433.419921875 l 1
 145.303710938 433.419921875 l 1
 156.017578125 494.1796875 l 2
 165.314453125 546.909179688 188.943359375 588.608398438 229.01171875 612.245117188 c 0
 253.495117188 626.697265625 282.4921875 633.530273438 315.248046875 633.530273438 c 0
 377.423828125 633.530273438 426.658203125 617.3671875 460.470703125 570.887695312 c 2
 462.029296875 568.74609375 l 1
 463.586914062 566.604492188 l 1
 463.078125 563.716796875 l 1
 462.569335938 560.830078125 l 1
 366.290039062 14.8017578125 l 1
 365.001953125 7.5 l 1
 363.6796875 0 l 1
 356.1796875 0 l 1
 348.6796875 0 l 1
 284.359375 0 l 1
 276.859375 0 l 1
 269.359375 0 l 1
 270.681640625 7.5 l 1
 271.96875 14.7998046875 l 1
 367.201171875 554.885742188 l 1
EndSplineSet
EndChar

StartChar: f_f_i
Encoding: 80 64259 80
Width: 685
VWidth: 0
Flags: W
HStem: 0 21G<68.9941 164.723 273.573 369.303 473.97 569.702> 383 50.4102<76.4219 136.391 239.822 341 444.402 541.477> 583.4 50.1191<270.595 356.175 478.448 564.557>
LayerCount: 2
Fore
SplineSet
644.801757812 433.41015625 m 1
 643.479492188 425.91015625 l 1
 642.157226562 418.41015625 l 1
 570.978515625 14.736328125 l 1
 569.702148438 7.5 l 1
 568.379882812 0 l 1
 560.879882812 0 l 1
 553.379882812 0 l 1
 488.969726562 0 l 1
 481.469726562 0 l 1
 473.969726562 0 l 1
 475.291992188 7.5 l 1
 476.614257812 15 l 1
 541.4765625 383 l 1
 435.487304688 383 l 1
 370.625 15 l 1
 369.302734375 7.5 l 1
 367.98046875 0 l 1
 360.48046875 0 l 1
 352.98046875 0 l 1
 288.5703125 0 l 1
 281.071289062 0 l 1
 273.573242188 0 l 1
 274.893554688 7.4990234375 l 1
 276.21484375 14.9970703125 l 1
 341 383 l 1
 230.907226562 383 l 1
 166.044921875 15 l 1
 164.72265625 7.5 l 1
 163.400390625 0 l 1
 155.900390625 0 l 1
 148.400390625 0 l 1
 83.990234375 0 l 1
 76.4921875 0 l 1
 68.994140625 0 l 1
 70.314453125 7.498046875 l 1
 71.634765625 14.99609375 l 1
 136.390625 383 l 1
 82.5068359375 383 l 1
 75.0068359375 383 l 1
 67.5068359375 383 l 1
 67.8330078125 384.849609375 l 1
 67.9814453125 385.688476562 l 1
 68.373046875 387.91015625 l 1
 69.6953125 395.41015625 l 1
 76.421875 433.41015625 l 1
 83.921875 433.41015625 l 1
 91.421875 433.41015625 l 1
 145.301757812 433.41015625 l 1
 156.015625 494.169921875 l 2
 171.25390625 580.59375 220.713867188 633.51953125 309.447265625 633.51953125 c 0
 358.528320312 633.51953125 396.772460938 620.022460938 421.484375 603.409179688 c 1
 449.791015625 624.44140625 482.633789062 633.51953125 521.416992188 633.51953125 c 0
 592.403320312 633.51953125 634.49609375 606.8203125 647.34375 578.109375 c 2
 650.21875 571.68359375 l 1
 653.092773438 565.258789062 l 1
 645.934570312 561.313476562 l 1
 638.776367188 557.3671875 l 1
 601.291992188 536.70703125 l 1
 595.240234375 533.37109375 l 1
 589.1875 530.03515625 l 1
 585.893554688 534.908203125 l 1
 582.600585938 539.780273438 l 2
 557.673828125 576.663085938 541.5859375 583.400390625 515.249023438 583.400390625 c 0
 484.377929688 583.400390625 465.11328125 550.869140625 455.116210938 494.169921875 c 2
 444.40234375 433.41015625 l 1
 629.801757812 433.41015625 l 1
 637.301757812 433.41015625 l 1
 644.801757812 433.41015625 l 1
303.299804688 583.400390625 m 0
 273.640625 583.400390625 260.961914062 553.299804688 250.536132812 494.169921875 c 2
 239.822265625 433.41015625 l 1
 349.912109375 433.41015625 l 1
 360.625976562 494.169921875 l 2
 363.829101562 512.336914062 369.111328125 529.432617188 375.44140625 544.095703125 c 1
 346.2578125 574.767578125 325.938476562 583.400390625 303.299804688 583.400390625 c 0
EndSplineSet
EndChar

StartChar: f_f_l
Encoding: 81 64260 81
Width: 661
VWidth: 0
Flags: W
HStem: 0 21G<69.9834 165.712 274.562 370.382 475.02 570.662> 383 50.4102<77.4219 137.411 240.812 342 445.472 542.547> 583.4 50.1191<271.59 357.124 479.409 566.94>
LayerCount: 2
Fore
SplineSet
157.015625 494.169921875 m 2
 172.25390625 580.59375 221.713867188 633.51953125 310.447265625 633.51953125 c 0
 359.512695312 633.51953125 397.521484375 620.170898438 422.15234375 603.580078125 c 1
 454.786132812 628.1484375 486.725585938 633.51953125 525.327148438 633.51953125 c 0
 566.563476562 633.51953125 628.046875 625.576171875 666.268554688 570.682617188 c 2
 667.744140625 568.563476562 l 1
 669.219726562 566.444335938 l 1
 668.723632812 563.6328125 l 1
 668.227539062 560.8203125 l 1
 571.950195312 14.8017578125 l 1
 570.662109375 7.5 l 1
 569.33984375 0 l 1
 561.83984375 0 l 1
 554.33984375 0 l 1
 490.01953125 0 l 1
 482.51953125 0 l 1
 475.01953125 0 l 1
 476.341796875 7.5 l 1
 477.6640625 15 l 1
 542.546875 383 l 1
 436.586914062 383 l 1
 371.704101562 15 l 1
 370.381835938 7.5 l 1
 369.059570312 0 l 1
 361.559570312 0 l 1
 353.969726562 0 l 1
 289.650390625 0 l 1
 282.061523438 0 l 1
 274.5625 0 l 1
 275.883789062 7.498046875 l 1
 277.204101562 14.9970703125 l 1
 342 383 l 1
 231.916992188 383 l 1
 167.034179688 15 l 1
 165.711914062 7.5 l 1
 164.389648438 0 l 1
 156.889648438 0 l 1
 149.389648438 0 l 1
 84.9794921875 0 l 1
 77.4814453125 0 l 1
 69.9833984375 0 l 1
 71.3037109375 7.498046875 l 1
 72.6240234375 14.99609375 l 1
 137.411132812 383 l 1
 83.52734375 383 l 1
 76.02734375 383 l 1
 68.52734375 383 l 1
 68.853515625 384.849609375 l 1
 69.001953125 385.688476562 l 1
 69.3935546875 387.91015625 l 1
 70.7158203125 395.41015625 l 1
 77.421875 433.41015625 l 1
 84.921875 433.41015625 l 1
 92.421875 433.41015625 l 1
 146.301757812 433.41015625 l 1
 157.015625 494.169921875 l 2
251.525390625 494.169921875 m 2
 240.811523438 433.41015625 l 1
 350.869140625 433.41015625 l 1
 360.409179688 488.384765625 365.298828125 519.619140625 376.290039062 544.303710938 c 1
 347.403320312 574.583007812 326.819335938 583.400390625 304.2890625 583.400390625 c 0
 274.630859375 583.400390625 261.951171875 553.299804688 251.525390625 494.169921875 c 2
551.431640625 433.41015625 m 1
 572.849609375 554.879882812 l 1
 554.142578125 582.13671875 536.409179688 583.379882812 515.985351562 583.379882812 c 0
 489.083007812 583.379882812 467.625976562 559.0546875 456.185546875 494.169921875 c 2
 445.471679688 433.41015625 l 1
 551.431640625 433.41015625 l 1
EndSplineSet
EndChar
